<?xml version="1.0" encoding="UTF-8" standalone="no"?>
<svg xmlns:rdf="http://www.w3.org/1999/02/22-rdf-syntax-ns#" xmlns="http://www.w3.org/2000/svg" version="1.1" xmlns:cc="http://creativecommons.org/ns#" xmlns:dc="http://purl.org/dc/elements/1.1/" viewBox="0 0 2048 2048">
 <title>PatchIt! Logo</title>
 <g transform="translate(0,995.63782)">
  <g transform="translate(118.90332,531.63488)">
   <path fill="#cccccc" d="m-118.9-503.27,0-1024,1024,0,1024,0,0,1024,0,1024-1024,0-1024,0,0-1024z"/>
   <path fill="#0000b6" d="m-118.9-503.27,0-1024,1024,0,1024,0,0,1024,0,1024-1024,0-1024,0,0-1024zm194.79,972c0.15788-7.975,0.0368-15.512-0.26905-16.75l-0.55612-2.25h-51.481-51.481v17.009,17.009l51.75-0.259,51.75-0.259,0.28707-14.5zm142.99-1.75-0.27418-16.75-51.5,0-51.5,0-0.27418,16.75-0.27418,16.75,52.048,0,52.048,0-0.27418-16.75zm144.01,1.75c0.15788-7.975,0.0368-15.512-0.26905-16.75l-0.55612-2.25h-51.345-51.345l-0.63593,4.6396c-0.80338,5.8613-0.8056,24.125-0.003,27.119l0.60532,2.259,51.631-0.259,51.631-0.2589,0.28707-14.5zm142.99-1.75-0.27418-16.75-51.5,0-51.5,0-0.27418,16.75-0.27418,16.75,52.048,0,52.048,0-0.27418-16.75zm144,0.8846c0.18871-10.48-0.0886-15.806-0.87245-16.75-0.95124-1.1462-9.8874-1.3846-51.896-1.3846h-50.747l-0.61983,3.75c-0.80209,4.8526-0.82593,26.607-0.0314,28.677,0.54896,1.4305,5.81,1.5646,52.25,1.3317l51.64-0.2589,0.27667-15.365zm143-0.8846-0.27418-16.75-51.5,0-51.5,0-0.27418,16.75-0.27418,16.75,52.048,0,52.048,0-0.27418-16.75zm185.01,1.75c0.1579-7.975,0.037-15.512-0.2691-16.75l-0.5561-2.25h-71.856-71.856l-0.625,3.125c-0.84045,4.2023-0.80031,29.366,0.0482,30.215,0.37026,0.3702,33.108,0.5577,72.75,0.4166l72.077-0.2565,0.2871-14.5zm142.99-1.75-0.2742-16.75-51.5,0-51.5,0-0.2742,16.75-0.2742,16.75,52.048,0,52.048,0-0.2742-16.75zm144.02,2.75c0.1635-7.425,0.031-14.962-0.2953-16.75l-0.5926-3.25h-50.92c-49.319,0-50.952,0.061-51.955,1.9343-1.1338,2.1184-1.4566,30.311-0.3596,31.408,0.3715,0.3716,23.884,0.5591,52.25,0.4167l51.574-0.2589,0.2973-13.5zm142.98-2.75-0.2742-16.75-51.5,0-51.5,0-0.2742,16.75-0.2742,16.75,52.048,0,52.048,0-0.2742-16.75zm144.02,2.75c0.1635-7.425,0.031-14.962-0.2953-16.75l-0.5926-3.25h-50.92c-49.319,0-50.952,0.061-51.955,1.9343-1.1338,2.1184-1.4566,30.311-0.3596,31.408,0.3715,0.3716,23.884,0.5591,52.25,0.4167l51.574-0.2589,0.2973-13.5zm142.98-2.75-0.2742-16.75-51.5,0-51.5,0-0.2742,16.75-0.2742,16.75,52.048,0,52.048,0-0.2742-16.75zm144.02,2.75c0.1635-7.425,0.031-14.962-0.2953-16.75l-0.5926-3.25h-50.92c-49.319,0-50.952,0.061-51.955,1.9343-1.1338,2.1184-1.4566,30.311-0.3596,31.408,0.3715,0.3716,23.884,0.5591,52.25,0.4167l51.574-0.2589,0.2973-13.5zm-1898-82.25,0.259-51.75-16.009,0-16.009,0,0,51.333c0,28.233,0.31126,51.645,0.69168,52.025,0.38042,0.3805,7.4679,0.568,15.75,0.4167l15.058-0.275,0.259-51.75zm1960.2,0.25,0-52-16,0-16,0,0,51.417c0,40.198,0.2727,51.527,1.25,51.921,0.6875,0.2774,7.8875,0.5399,16,0.5834l14.75,0.079v-52zm-1960.5-144,0-51.5-15.75-0.2754-15.75-0.2754,0,52.051,0,52.051,15.75-0.2754,15.75-0.2754,0-51.5zm1960.5-0.025,0-52.025-15.75,0.2754-15.75,0.2754-0.2602,50.5c-0.1431,27.775-0.045,51.062,0.2187,51.75,0.3546,0.9258,4.507,1.25,16.01,1.25h15.531v-52.025zm-1960.2-143.22,0.259-51.75-16.009,0-16.009,0,0,51.333c0,28.233,0.31126,51.645,0.69168,52.025,0.38042,0.3805,7.4679,0.568,15.75,0.4167l15.058-0.275,0.259-51.75zm1960.2,0.25,0-52-16,0-16,0,0,51.417c0,40.198,0.2727,51.527,1.25,51.921,0.6875,0.2774,7.8875,0.5399,16,0.5834l14.75,0.079v-52zm-1960.5-144,0-51.5-15.75-0.2754-15.75-0.2754,0,52.051,0,52.051,15.75-0.2754,15.75-0.2754,0-51.5zm1960.5-0.025,0-52.025-15.75,0.2754-15.75,0.2754-0.259,51.75-0.259,51.75,16.009,0,16.009,0,0-52.025zm-1960.2-143.22,0.259-51.75-16.009,0-16.009,0,0,51.333c0,28.233,0.31126,51.645,0.69168,52.025,0.38042,0.3805,7.4679,0.568,15.75,0.4167l15.058-0.275,0.259-51.75zm1960.2,0.25,0-52-16,0-16,0,0,51.417c0,40.198,0.2727,51.527,1.25,51.921,0.6875,0.2774,7.8875,0.5399,16,0.5834l14.75,0.079v-52zm-1960.5-144,0-51.5-15.75-0.2754-15.75-0.2754,0,52.051,0,52.051,15.75-0.2754,15.75-0.2754,0-51.5zm1960.5-0.025,0-52.025-15.75,0.2754-15.75,0.2754-0.259,51.75-0.259,51.75,16.009,0,16.009,0,0-52.025zm-1960.5-172.98,0-81.5-15.75-0.27539-15.75-0.2754,0,81.359c0,44.747,0.31126,81.67,0.69168,82.05,0.38042,0.3805,7.4679,0.568,15.75,0.4167l15.058-0.275v-81.5zm1960.5-0.025,0-82.025-15.75,0.2754-15.75,0.27539-0.256,80.937c-0.2026,64.088,0.01,81.103,1,81.735,0.6908,0.4386,7.8935,0.8043,16.006,0.8127l14.75,0.015v-82.025zm-1960.2-173.11,0.25894-51.631-2.2589-0.60532c-2.9508-0.7907-26.128-0.81178-28.177-0.0256-1.4139,0.54253-1.5818,6.0441-1.5818,51.833,0,28.174,0.31126,51.538,0.69168,51.918,0.38042,0.38042,7.4679,0.56792,15.75,0.41666l15.058-0.27501,0.25894-51.631zm1960.2,0.23802c0-46.397-0.1675-51.957-1.5818-52.5-2.0794-0.79793-23.283-0.78394-27.293,0.018l-3.125,0.625v51.292c0,40.098,0.2728,51.402,1.25,51.796,0.6875,0.27741,7.8875,0.53991,16,0.58333l14.75,0.079v-51.893zm-1960.2-143.83l-0.259-51.75-15.75-0.27539-15.75-0.2754v52.025,52.025h16.009,16.009l-0.259-51.75zm1960.2-0.27539,0-52.025-15.75,0.2754-15.75,0.27539-0.259,51.75-0.259,51.75,16.009,0,16.009,0,0-52.025zm-1960.2-143.1,0.25893-51.623-3.1339-0.6268c-4.0165-0.8033-25.22-0.8187-27.302-0.02-1.4139,0.5426-1.5818,6.0441-1.5818,51.833,0,28.174,0.31126,51.538,0.69168,51.918,0.38042,0.38042,7.4679,0.56792,15.75,0.41666l15.058-0.27501,0.25893-51.623zm1960.2,0.2302c0-46.397-0.1675-51.957-1.5818-52.5-2.0794-0.7979-23.283-0.784-27.293,0.018l-3.125,0.625v51.292c0,40.098,0.2728,51.402,1.25,51.796,0.6875,0.27741,7.8875,0.53991,16,0.58333l14.75,0.079v-51.893zm-1960.2-143.86-0.259-51.75-15.75-0.2754-15.75-0.2754,0,52.025,0,52.025,16.009,0,16.009,0-0.259-51.75zm1960.2-0.2754,0-52.025-15.75,0.2754-15.75,0.2754-0.259,51.75-0.259,51.75,16.009,0,16.009,0,0-52.025zm-1960.2-143.09,0.25893-51.618-3.7589-0.6213c-4.8078-0.7947-23.058-0.8038-26.009-0.013l-2.25,0.603v51.217c0,28.169,0.31126,51.528,0.69168,51.908,0.38042,0.3804,7.4679,0.5679,15.75,0.4166l15.058-0.275,0.25893-51.618zm1960.2,0.163,0-51.955-3.4847-0.6537c-4.485-0.8414-25.627-0.1536-27.265,0.887-0.9732,0.6183-1.25,12.056-1.25,51.652,0,39.75,0.273,50.968,1.25,51.362,0.6875,0.2774,7.8875,0.5399,16,0.5833l14.75,0.079v-51.955zm-1960.2-143.8-0.259-51.75-15.75-0.2754-15.75-0.2754,0,52.025,0,52.025,16.009,0,16.009,0-0.259-51.75zm1960.2-0.2754,0-52.025-15.75,0.2754-15.75,0.2754-0.259,51.75-0.259,51.75,16.009,0,16.009,0,0-52.025zm-1826.1-63.4c0.7838-0.9444,1.0612-6.2695,0.87245-16.75l-0.27667-15.365-51.75-0.259-51.75-0.259v16.342c0,8.9883,0.3,16.642,0.66667,17.009,0.36667,0.3667,23.262,0.6667,50.878,0.6667,41.552,0,50.409-0.2388,51.36-1.3846zm143.87-15.865,0.27418-16.75-52.024,0-52.024,0,0,16.333c0,8.9834,0.30404,16.637,0.67565,17.009,0.37161,0.3716,23.659,0.5591,51.75,0.4167l51.074-0.259,0.27418-16.75zm143.13,15.865c0.7838-0.9444,1.0612-6.2695,0.87245-16.75l-0.27667-15.365-51.687-0.259-51.687-0.2589-0.67153,4.478c-0.84224,5.6165-0.19647,26.611,0.87016,28.29,1.2323,1.9396,100.97,1.8087,102.58-0.1346zm143.87-15.865,0.27418-16.75-52.024,0-52.024,0,0,16.333c0,8.9834,0.30404,16.637,0.67565,17.009,0.37161,0.3716,23.659,0.5591,51.75,0.4167l51.074-0.259,0.27418-16.75zm143.13,15.865c0.7838-0.9444,1.0612-6.2695,0.87245-16.75l-0.27667-15.365-51.631-0.2589-51.631-0.259-0.60532,2.259c-0.98378,3.6713-0.71695,26.407,0.34263,29.194l0.97525,2.5651h50.402c41.715,0,50.6-0.2386,51.551-1.3846zm143.87-15.865,0.27418-16.75-52.024,0-52.024,0,0,16.333c0,8.9834,0.30404,16.637,0.67565,17.009,0.37161,0.3716,23.659,0.5591,51.75,0.4167l51.074-0.259,0.27418-16.75zm184.74,15c0.3059-1.2375,0.427-8.775,0.2691-16.75l-0.2871-14.5-71.937-0.2567c-56.888-0.2029-72.104,0.01-72.735,1-1.1802,1.859-1.0011,28.566,0.20673,30.822,1.0086,1.8847,2.8681,1.9343,72.481,1.9343h71.446l0.5561-2.25zm143.26-15,0.2742-16.75-52.024,0-52.024,0,0,16.417c0,12.195,0.3214,16.548,1.25,16.926,0.6875,0.28,23.975,0.43,51.75,0.3333l50.5-0.1758,0.2742-16.75zm143.73,14c0.3259-1.7875,0.4588-9.325,0.2953-16.75l-0.2973-13.5h-52-52l-0.2767,15.365c-0.1887,10.48,0.089,15.806,0.8725,16.75,0.9513,1.1462,9.9001,1.3846,51.981,1.3846h50.832l0.5926-3.25zm143.27-14,0.2742-16.75-52.024,0-52.024,0,0,16.417c0,12.195,0.3214,16.548,1.25,16.926,0.6875,0.28,23.975,0.43,51.75,0.3333l50.5-0.1758,0.2742-16.75zm143.73,14c0.3259-1.7875,0.4588-9.325,0.2953-16.75l-0.2973-13.5h-52-52l-0.2767,15.365c-0.1887,10.48,0.089,15.806,0.8725,16.75,0.9513,1.1462,9.9001,1.3846,51.981,1.3846h50.832l0.5926-3.25zm143.27-14,0.2742-16.75-52.024,0-52.024,0,0,16.417c0,12.195,0.3214,16.548,1.25,16.926,0.6875,0.28,23.975,0.43,51.75,0.3333l50.5-0.1758,0.2742-16.75zm143.73,14c0.3259-1.7875,0.4588-9.325,0.2953-16.75l-0.2973-13.5h-52-52l-0.2767,15.365c-0.1887,10.48,0.089,15.806,0.8725,16.75,0.9513,1.1462,9.9001,1.3846,51.981,1.3846h50.832l0.5926-3.25z"/>
   <path fill="#007d00" d="m-118.9-503.27,0-1024,1024,0,1024,0,0,1024,0,1024-1024,0-1024,0,0-1024zm194.79,972c0.15788-7.975,0.0368-15.512-0.26905-16.75l-0.55612-2.25h-51.481-51.481v17.009,17.009l51.75-0.259,51.75-0.259,0.28707-14.5zm142.99-1.75-0.27418-16.75-51.5,0-51.5,0-0.27418,16.75-0.27418,16.75,52.048,0,52.048,0-0.27418-16.75zm144.01,1.75c0.15788-7.975,0.0368-15.512-0.26905-16.75l-0.55612-2.25h-51.345-51.345l-0.63593,4.6396c-0.80338,5.8613-0.8056,24.125-0.003,27.119l0.60532,2.259,51.631-0.259,51.631-0.2589,0.28707-14.5zm142.99-1.75-0.27418-16.75-51.5,0-51.5,0-0.27418,16.75-0.27418,16.75,52.048,0,52.048,0-0.27418-16.75zm144,0.8846c0.18871-10.48-0.0886-15.806-0.87245-16.75-0.95124-1.1462-9.8874-1.3846-51.896-1.3846h-50.747l-0.61983,3.75c-0.80209,4.8526-0.82593,26.607-0.0314,28.677,0.54896,1.4305,5.81,1.5646,52.25,1.3317l51.64-0.2589,0.27667-15.365zm143-0.8846-0.27418-16.75-51.5,0-51.5,0-0.27418,16.75-0.27418,16.75,52.048,0,52.048,0-0.27418-16.75zm185.01,1.75c0.1579-7.975,0.037-15.512-0.2691-16.75l-0.5561-2.25h-71.856-71.856l-0.625,3.125c-0.84045,4.2023-0.80031,29.366,0.0482,30.215,0.37026,0.3702,33.108,0.5577,72.75,0.4166l72.077-0.2565,0.2871-14.5zm142.99-1.75-0.2742-16.75-51.5,0-51.5,0-0.2742,16.75-0.2742,16.75,52.048,0,52.048,0-0.2742-16.75zm144.02,2.75c0.1635-7.425,0.031-14.962-0.2953-16.75l-0.5926-3.25h-50.92c-49.319,0-50.952,0.061-51.955,1.9343-1.1338,2.1184-1.4566,30.311-0.3596,31.408,0.3715,0.3716,23.884,0.5591,52.25,0.4167l51.574-0.2589,0.2973-13.5zm142.98-2.75-0.2742-16.75-51.5,0-51.5,0-0.2742,16.75-0.2742,16.75,52.048,0,52.048,0-0.2742-16.75zm144.02,2.75c0.1635-7.425,0.031-14.962-0.2953-16.75l-0.5926-3.25h-50.92c-49.319,0-50.952,0.061-51.955,1.9343-1.1338,2.1184-1.4566,30.311-0.3596,31.408,0.3715,0.3716,23.884,0.5591,52.25,0.4167l51.574-0.2589,0.2973-13.5zm142.98-2.75-0.2742-16.75-51.5,0-51.5,0-0.2742,16.75-0.2742,16.75,52.048,0,52.048,0-0.2742-16.75zm144.02,2.75c0.1635-7.425,0.031-14.962-0.2953-16.75l-0.5926-3.25h-50.92c-49.319,0-50.952,0.061-51.955,1.9343-1.1338,2.1184-1.4566,30.311-0.3596,31.408,0.3715,0.3716,23.884,0.5591,52.25,0.4167l51.574-0.2589,0.2973-13.5zm-1898-82.25,0.259-51.75-16.009,0-16.009,0,0,51.333c0,28.233,0.31126,51.645,0.69168,52.025,0.38042,0.3805,7.4679,0.568,15.75,0.4167l15.058-0.275,0.259-51.75zm1960.2,0.25,0-52-16,0-16,0,0,51.417c0,40.198,0.2727,51.527,1.25,51.921,0.6875,0.2774,7.8875,0.5399,16,0.5834l14.75,0.079v-52zm-1729.6-81.73c0.25684-0.4156,0.79772-24.649,1.2019-53.853,0.55714-40.25,0.45085-53.273-0.43928-53.823-0.64583-0.3992-8.7127-0.9808-17.926-1.2925-14.966-0.5063-16.935-0.3837-18.469,1.1498-1.5473,1.5474-1.7168,4.7406-1.719,32.395-0.001,16.873-0.29766,40.454-0.65846,52.402l-0.65601,21.724,2.4085,0.963c2.8397,1.1355,35.576,1.4372,36.257,0.3342zm-230.85-62.244,0-51.5-15.75-0.2754-15.75-0.2754,0,52.051,0,52.051,15.75-0.2754,15.75-0.2754,0-51.5zm1960.5-0.025,0-52.025-15.75,0.2754-15.75,0.2754-0.2602,50.5c-0.1431,27.775-0.045,51.062,0.2187,51.75,0.3546,0.9258,4.507,1.25,16.01,1.25h15.531v-52.025zm-500.98,34.025c1.0342-1.6393,1.3628-100.96,0.3466-104.75-0.5949-2.2199-0.8273-2.25-17.37-2.25-16.542,0-16.775,0.03-17.37,2.25-0.3317,1.2375-0.6091,25.055-0.6166,52.929-0.012,45.646,0.1491,50.841,1.6261,52.318,1.4076,1.4076,3.82,1.5947,17.038,1.3215,12.352-0.2554,15.586-0.6152,16.345-1.8184zm-1226.9-128c0.34821-3.575,0.68571-27.935,0.75-54.133l0.11688-47.633-16.75-0.4174c-9.2125-0.2296-17.705-0.241-18.872-0.025-3.1378,0.5798-3.3599,4.4971-3.3697,59.422l-0.009,48.714,9.75,0.344c5.3625,0.1892,13.8,0.318,18.75,0.2862l9-0.058,0.63312-6.5zm-232.37-49.25,0.259-51.75-16.009,0-16.009,0,0,51.333c0,28.233,0.31126,51.645,0.69168,52.025,0.38042,0.3805,7.4679,0.568,15.75,0.4167l15.058-0.275,0.259-51.75zm1960.2,0.25,0-52-16,0-16,0,0,51.417c0,40.198,0.2727,51.527,1.25,51.921,0.6875,0.2774,7.8875,0.5399,16,0.5834l14.75,0.079v-52zm-501.04,27.066c1.132-2.115,1.5121-98.431,0.4102-103.94l-0.625-3.125h-16.75-16.75l-0.625,3.125c-0.3437,1.7188-0.625,25.704-0.625,53.3,0,37.692,0.2986,50.474,1.2,51.375,0.8318,0.8318,6.0366,1.2,16.965,1.2,14.563,0,15.844-0.1475,16.8-1.9343zm-1459.4-171.06v-51.5l-15.75-0.2754-15.75-0.2754v52.051,52.051l15.75-0.2754,15.75-0.2754v-51.5zm1960.5-0.025,0-52.025-15.75,0.2754-15.75,0.2754-0.259,51.75-0.259,51.75,16.009,0,16.009,0,0-52.025zm-1725.9-3.475c0.32017-29.15,0.38452-53.562,0.14301-54.25-0.52402-1.4917-36.747-1.8323-37.661-0.3542-0.3045,0.4927-0.85415,24.756-1.2214,53.918l-0.66782,53.022,2.9124,0.4438c1.6018,0.2442,10.337,0.3936,19.412,0.3321l16.5-0.1117,0.58214-53zm1224.9,24.566c1.3678-2.5557,1.4242-100.91,0.06-104.5l-0.9753-2.5651h-16.4-16.4l-0.625,3.125c-0.8047,4.0236-0.8217,102.2-0.018,104.29,0.5193,1.3532,2.9711,1.5818,16.965,1.5818,15.149,0,16.434-0.1429,17.393-1.9343zm-1459.2-164.32,0.259-51.75-16.009,0-16.009,0,0,51.333c0,28.233,0.31126,51.645,0.69168,52.025,0.38042,0.3805,7.4679,0.568,15.75,0.4167l15.058-0.275,0.259-51.75zm1960.2,0.25,0-52-16,0-16,0,0,51.417c0,40.198,0.2727,51.527,1.25,51.921,0.6875,0.2774,7.8875,0.5399,16,0.5834l14.75,0.079v-52zm-1724.8,6c0.40945-20.075,0.63445-44.375,0.5-54l-0.24446-17.5-18.725-0.272-18.725-0.2719-0.46107,2.2719c-0.2536,1.2496-0.70457,25.318-1.0022,53.485-0.50499,47.798-0.42587,51.281,1.1865,52.232,1.0395,0.6133,8.6974,0.9268,19.228,0.7871l17.5-0.2321,0.74446-36.5zm1224.1,7.75c1.0353-3.8631,0.7123-101.4-0.3449-104.18l-0.9753-2.5651h-16.4-16.4l-0.625,3.125c-0.8047,4.0236-0.8217,102.2-0.018,104.29,0.5201,1.3554,3.008,1.5818,17.383,1.5818,16.552,0,16.784-0.03,17.379-2.25zm-1459.9-157.75,0-51.5-15.75-0.2754-15.75-0.2754,0,52.051,0,52.051,15.75-0.2754,15.75-0.2754,0-51.5zm1960.5-0.025,0-52.025-15.75,0.2754-15.75,0.2754-0.259,51.75-0.259,51.75,16.009,0,16.009,0,0-52.025zm-1723.5,21.775c0.36627-8.3875,0.52615-32.8,0.35529-54.25l-0.31065-39h-18.49-18.49l-0.6415,3c-0.85928,4.0184-1.0609,103.98-0.21147,104.83,0.36666,0.3667,8.8693,0.6667,18.895,0.6667h18.228l0.66593-15.25zm1222.9-13.332c1.0397-2.7095,0.6908-102.07-0.3682-104.85l-0.9753-2.5651h-16.05-16.05l-0.9753,2.5651c-1.059,2.7855-1.4079,102.14-0.3682,104.85,0.5201,1.3555,3.0088,1.5818,17.393,1.5818s16.873-0.2263,17.393-1.5818zm-1459.9-181.42,0-81.5-15.75-0.27539-15.75-0.2754,0,81.359c0,44.747,0.31126,81.67,0.69168,82.05,0.38042,0.3805,7.4679,0.568,15.75,0.4167l15.058-0.275v-81.5zm1960.5-0.025,0-82.025-15.75,0.2754-15.75,0.27539-0.256,80.937c-0.2026,64.088,0.01,81.103,1,81.735,0.6908,0.4386,7.8935,0.8043,16.006,0.8127l14.75,0.015v-82.025zm-1722.7,59.275c0.24933-0.4125,0.73581-44.85,1.0811-98.75,0.34526-53.9,0.88647-101.45,1.2027-105.67,0.31623-4.2186,0.26841-9.0658-0.10628-10.772l-0.68124-3.1017-18.666,0.27175-18.666,0.27176-0.62519,18c-1.0636,30.621-0.98119,89.5,0.12519,89.5,1.3112,0,1.2981,2.734-0.0152,3.1717-1.1295,0.3765-2.7568,103.37-1.6777,106.19,0.55286,1.4407,2.8949,1.642,19.102,1.642,10.16,0,18.676-0.3375,18.926-0.75zm1222.2-28.5c0.3053-1.2375,0.4264-25.329,0.2691-53.537-0.247-44.288-0.4907-51.416-1.786-52.235-0.825-0.52128-8.3736-0.95468-16.775-0.9631l-15.275-0.0153-0.9753,2.5651c-1.059,2.7855-1.4079,102.14-0.3682,104.85,0.5203,1.3559,3.0166,1.5818,17.481,1.5818,16.668,0,16.881-0.027,17.429-2.25zm-1459.8-203.88,0.25894-51.631-2.2589-0.60532c-2.9508-0.7907-26.128-0.81178-28.177-0.0256-1.4139,0.54253-1.5818,6.0441-1.5818,51.833,0,28.174,0.31126,51.538,0.69168,51.918,0.38042,0.38042,7.4679,0.56792,15.75,0.41666l15.058-0.27501,0.25894-51.631zm1960.2,0.23802c0-46.397-0.1675-51.957-1.5818-52.5-2.0794-0.79793-23.283-0.78394-27.293,0.018l-3.125,0.625v51.292c0,40.098,0.2728,51.402,1.25,51.796,0.6875,0.27741,7.8875,0.53991,16,0.58333l14.75,0.079v-51.893zm-1368.9,22.178c0.78615-0.78615,0.48481-5.6426-1.082-17.438-1.1944-8.9914-2.4146-17.195-2.7116-18.231-0.51604-1.7992-1.7024-1.8601-26.68-1.3697l-26.14,0.51323-24.633-6.3803c-13.548-3.5092-25.345-6.3803-26.216-6.3803-1.149,0-2.567,3.217-5.1795,11.75-1.9786,6.4625-4.2441,13.743-5.0344,16.178-0.79035,2.4355-1.437,5.2354-1.437,6.2221,0,2.0778,0.23823,2.1548,33.5,10.83l23,5.9984,30.762-0.3016c20.476-0.20075,31.127-0.66596,31.852-1.3912zm66.598-19.832c10.36-4.3952,21.754-10.082,27.288-13.618,8.4009-5.3695,45.078-33.021,53.75-40.524l3.2501-2.8117-12.799-13.433c-9.5525-10.025-13.167-13.215-14.25-12.575-0.79784,0.47177-10.676,7.9102-21.951,16.53-27.225,20.813-31.881,23.733-49.5,31.036-8.25,3.4198-15.574,6.7455-16.275,7.3906-1.0228,0.94112-0.37796,3.73,3.263,14.112,6.8846,19.632,7.6061,21.44,8.5568,21.44,0.48384,0,8.8841-3.3958,18.667-7.5462zm-220.85-25.93c3.4526-9.264,6.0685-17.182,5.813-17.595-0.25553-0.41345-7.1014-3.3369-15.213-6.4966s-30.21-12.227-49.108-20.15-34.584-14.181-34.858-13.906c-0.73077,0.73077-13.283,32.497-13.283,33.615,0,1.3575,2.3354,2.4423,33.5,15.56,34.484,14.515,64.687,26.469,65.935,26.096,0.51449-0.1537,3.7603-7.8591,7.213-17.123zm-196.88-27.283,0.26843-23.25,2.2316,0.0229c3.5884,0.0368,25.277,5.6342,37.448,9.6643,6.1688,2.0428,11.432,3.4978,11.697,3.2335,0.26433-0.26432,3.1824-8.2329,6.4846-17.708l6.004-17.227-3.6508-1.5254c-7.0714-2.9546-28.921-9.4102-43.967-12.991l-15.217-3.6209-0.28307-10.674-0.28306-10.674-18.427-0.27324c-14.073-0.20868-18.618,0.0276-19.235,1-0.44443,0.70028-0.81496,3.4107-0.82338,6.0232-0.0112,3.462-0.40604,4.75-1.4563,4.75-2.1175,0-2.3013,0.49722-7.0479,19.068l-4.3566,17.045,2.1728,0.90922c1.195,0.50007,4.0697,1.3878,6.3882,1.9726l4.2155,1.0634-0.62351,27.88-0.62352,27.88,2.408,0.46544c1.3244,0.256,10.058,0.40911,19.408,0.34026l17-0.12518,0.26843-23.25zm1216.2,13.743c5.7326-0.51661,10.797-1.3134,11.254-1.7706,0.9755-0.97556-3.5986-37.044-4.8576-38.303-0.4737-0.47379-7.5386-0.39334-15.838,0.18036-21.825,1.5087-43.516-0.16847-68.482-5.2952-7.975-1.6377-15.15-3.0512-15.944-3.1412-1.0379-0.11768-2.9317,4.7535-6.74,17.336-2.9131,9.625-5.301,18.074-5.3065,18.775-0.015,1.8861,3.7809,3.0811,21.49,6.7654,27.888,5.802,58.564,7.7835,84.423,5.4532zm67.63-14.393c15.934-5.4458,22.746-8.2323,34.335-14.045,20.575-10.319,44.775-25.684,54.33-34.496l4.944-4.5595-12.652-14.823-12.652-14.823-3.1791,2.5906c-1.7484,1.4248-9.85,7.0715-18.003,12.548-16.963,11.394-37.776,22-55.176,28.116-6.6,2.32-12.406,4.5736-12.903,5.0081-1.2403,1.0852,9.1937,37.884,10.742,37.884,0.1476,0,4.7443-1.5298,10.215-3.3995zm-208.71-30.583c4.4845-9.3402,8.1536-17.436,8.1536-17.99,0-0.55425-4.1246-3.0792-9.1659-5.6111-20.746-10.419-45.921-29.512-63.457-48.126l-8.1228-8.6222-12.717,10.916c-6.9942,6.0037-13.576,11.533-14.627,12.288-1.0508,0.75459-1.909,1.8796-1.9071,2.5,0.01,2.0811,14.36,16.876,27.954,28.813,15.264,13.403,37.205,28.588,53.507,37.03,6.0697,3.1431,11.304,5.7306,11.632,5.75s4.2655-7.6068,8.75-16.947zm-535.72-15.27c9.2895-10.654,17.749-23.288,34.109-50.936,15.426-26.07,21.173-37.822,20.266-41.435-0.33665-1.3413-0.0132-2.3735,0.84716-2.7037,1.6055-0.61607,6.9759-14.143,15.444-38.899,5.1377-15.02,6.5492-20.9,10.541-43.915,2.535-14.615,4.609-27.723,4.609-29.129,0-2.9522,0.68981-2.7856-21.879-5.2823-7.9086-0.87488-14.738-1.2214-15.176-0.76997-0.43806,0.4514-2.6645,12.071-4.9476,25.821-4.2969,25.878-5.8586,31.715-16.136,60.307-3.2238,8.9688-5.8615,17.144-5.8615,18.167,0,1.0229-0.34686,2.0098-0.77079,2.1932-0.42394,0.18333-2.0773,3.4833-3.6742,7.3333-3.3985,8.1935-29.235,52.056-37.211,63.173-3.0211,4.2108-7.7551,10.257-10.52,13.436-2.765,3.179-4.8625,6.2742-4.6612,6.8782,0.53322,1.5996,26.122,22.988,27.519,23.001,0.64957,0.006,4.0257-3.2511,7.5025-7.2386zm-779.42-46.5-0.259-51.75-15.75-0.27539-15.75-0.2754,0,52.025,0,52.025,16.009,0,16.009,0-0.259-51.75zm1960.2-0.27539,0-52.025-15.75,0.2754-15.75,0.27539-0.259,51.75-0.259,51.75,16.009,0,16.009,0,0-52.025zm-1807,27.72c2.4799-9.6897,3.9232-17.153,3.4082-17.624-0.49132-0.44926-24.068-6.3059-52.393-13.015-28.325-6.7088-52.037-12.367-52.694-12.574-1.3191-0.41513-2.4962,3.2235-7.3972,22.868-2.6752,10.723-2.9743,12.992-1.8071,13.714,0.76925,0.47584,11.749,3.3598,24.399,6.4088,78.786,18.99,80.002,19.262,81.092,18.145,0.60051-0.61475,3.0275-8.6807,5.3933-17.924zm1503.7-27.949c8.1851-9.7324,25.15-35.779,31.748-48.745,11.402-22.403,19.968-45.021,17.852-47.137-1.5313-1.5313-35.606-11.863-36.366-11.027-0.3313,0.36483-2.3018,5.3883-4.3788,11.163-8.3409,23.191-26.614,55.757-40.224,71.688-2.4656,2.886-4.3281,5.6869-4.1388,6.2243,0.4118,1.1695,27.83,25.087,28.758,25.087,0.3555,0,3.3922-3.2649,6.7483-7.2554zm-452.91-40.98c7.8375-4.9043,14.25-9.0495,14.25-9.2115,0-0.16199-3.119-6.3153-6.931-13.674-6.6026-12.745-16.074-36.059-19.451-47.879-2.7633-9.672-7.7589-34.281-8.3228-41-1.0459-12.46-0.729-47.572,0.5189-57.5,0.6913-5.5,2.6449-16.884,4.3414-25.297,1.6964-8.4131,2.9178-15.449,2.7143-15.636-0.6439-0.5899-34.814-10.568-36.19-10.568-3.6626,0-10.426,35.758-12.577,66.5-1.0554,15.079,0.3784,45.577,2.3319,49.6,0.6945,1.4302,1.0707,3.9086,0.8361,5.5075-1.1356,7.7368,7.9516,42.069,17.97,67.892,4.2209,10.88,16.029,34.748,19.42,39.256,2.8969,3.8503,1.0442,4.5523,21.089-7.9908zm-962.35-13.01c0.37097-11.688,0.53328-36.1,0.36069-54.25l-0.31379-33-18.266-0.27262-18.266-0.27262-0.98385,2.5877c-1.5684,4.1252-1.3142,105.16,0.26615,105.8,0.6875,0.27741,9.1877,0.53991,18.889,0.58333l17.639,0.0789,0.67449-21.25zm-241.69-88.873,0.25893-51.623-3.1339-0.6268c-4.0165-0.8033-25.22-0.8187-27.302-0.02-1.4139,0.5426-1.5818,6.0441-1.5818,51.833,0,28.174,0.31126,51.538,0.69168,51.918,0.38042,0.38042,7.4679,0.56792,15.75,0.41666l15.058-0.27501,0.25893-51.623zm1960.2,0.2302c0-46.397-0.1675-51.957-1.5818-52.5-2.0794-0.7979-23.283-0.784-27.293,0.018l-3.125,0.625v51.292c0,40.098,0.2728,51.402,1.25,51.796,0.6875,0.27741,7.8875,0.53991,16,0.58333l14.75,0.079v-51.893zm-241.62,0.35356c0.3249-0.8467,1.1328-9.9153,1.7953-20.152,2.5196-38.93-2.6833-76.754-15.573-113.21-3.5786-10.122-6.9617-18.859-7.5181-19.415-0.6822-0.6822-6.4777,1.3809-17.796,6.3352-9.2316,4.0408-17.184,7.6867-17.672,8.1022-0.4937,0.4204,1.6121,7.9881,4.7496,17.068,10.428,30.179,15.831,68.678,13.587,96.813-0.4605,5.775-0.8626,12.794-0.8935,15.597l-0.056,5.0967,17.25,2.5349c21.213,3.1172,21.4,3.1276,22.127,1.2323zm-1475.4-92.99c0.275-28.6,0.16977-53.023-0.23385-54.273-0.73216-2.2674-0.77587-2.272-19-2l-18.266,0.2726-0.61457,16c-0.33802,8.8-0.67552,32.95-0.75,53.667-0.10533,29.295,0.1424,37.781,1.1146,38.182,0.6875,0.2837,9.35,0.4336,19.25,0.3333l18-0.1824,0.5-52zm623.8,26.3c0.83963-0.8396,1.2-6.3278,1.2-18.275,0-18.672-0.83854-24.698-9.5358-68.525-4.8681-24.531-6.1913-29.998-7.2612-30.003-0.38665,0-8.6972,2.3228-18.468,5.1654-14.368,4.18-17.675,5.4712-17.297,6.7528,0.25715,0.8715,3.2683,15.535,6.6914,32.585,6.1847,30.805,6.2262,31.126,6.5925,51,0.20275,11,0.5592,20.562,0.79212,21.25,0.59159,1.7462,35.543,1.793,37.286,0.05zm-867.04-77.55-0.259-51.75-15.75-0.2754-15.75-0.2754,0,52.025,0,52.025,16.009,0,16.009,0-0.259-51.75zm1960.2-0.2754,0-52.025-15.75,0.2754-15.75,0.2754-0.259,51.75-0.259,51.75,16.009,0,16.009,0,0-52.025zm-750.01-9.9598c10.584-21.05,35.651-53.898,51.376-67.322,3.0973-2.6442,5.6314-5.1624,5.6314-5.5959,0-0.9647-22.462-27.231-24.387-28.517-3.9889-2.6658-34.58,30.883-51.503,56.482-12.42,18.787-21.172,35.284-19.563,36.874,1.0666,1.054,32.533,16.053,33.693,16.061,0.4064,0,2.5456-3.5888,4.7538-7.9807zm448.18-29.094c8.7048-5.5436,15.827-10.634,15.827-11.312,0-2.9667-13.887-21.684-27.532-37.108-17.267-19.519-51.132-48.062-54.53-45.962-1.3624,0.842-20.938,30.156-20.938,31.354,0,0.5174,3.4875,3.398,7.75,6.4013,19.612,13.818,44.287,39.463,58.651,60.956,2.1135,3.1625,4.0908,5.75,4.3939,5.75,0.3032,0,7.6734-4.5357,16.378-10.079zm-1414.9-7.6707c0.24212-0.4125,0.76726-25.339,1.167-55.391l0.72674-54.642-17.561-5.8217c-9.6588-3.202-17.912-5.4711-18.341-5.0424-0.42865,0.4286-1.0823,3.7871-1.4526,7.4632-1.0124,10.051-3.305,110.58-2.5657,112.51,0.56797,1.4801,2.7691,1.6727,19.114,1.6727,10.16,0,18.67-0.3375,18.913-0.75zm574.51-27.93c9.0033-3.6741,16.577-7.2201,16.83-7.88,0.65388-1.704-5.9705-18.423-10.848-27.379-12.655-23.237-35.546-59.822-42.017-67.154-3.8386-4.349-7.2757-7.9045-7.638-7.9011-0.99496,0.01-27.603,22.933-28.026,24.145-0.20209,0.5794,2.1255,3.5949,5.1724,6.7011,3.8548,3.9298,9.9742,13.044,20.119,29.964,16.055,26.779,22.038,38.008,26.074,48.933,1.4728,3.9875,2.9673,7.25,3.3212,7.25,0.35386,0,8.0097-3.0061,17.013-6.6801zm-818.07-68.438,0.25893-51.618-3.7589-0.6213c-4.8078-0.7947-23.058-0.8038-26.009-0.013l-2.25,0.603v51.217c0,28.169,0.31126,51.528,0.69168,51.908,0.38042,0.3804,7.4679,0.5679,15.75,0.4166l15.058-0.275,0.25893-51.618zm1960.2,0.163,0-51.955-3.4847-0.6537c-4.485-0.8414-25.627-0.1536-27.265,0.887-0.9732,0.6183-1.25,12.056-1.25,51.652,0,39.75,0.273,50.968,1.25,51.362,0.6875,0.2774,7.8875,0.5399,16,0.5833l14.75,0.079v-51.955zm-642,26.735c22.109-10.983,39.07-17.067,60-21.522,9.075-1.9317,16.839-3.8166,17.254-4.1885,0.9182-0.8241-4.0284-37.22-5.2228-38.429-0.4725-0.478-8.5731,0.7467-18.257,2.7602-16.282,3.3854-31.378,8.0655-50.213,15.567-10.943,4.3582-38.826,18.563-40.869,20.82-1.5869,1.7536-1.1457,2.6924,8.4873,18.058,5.5887,8.9143,10.422,16.078,10.741,15.918,0.3188-0.1593,8.4547-4.2017,18.08-8.9831zm225.3-22.03c4.154-8.9375,7.6986-16.925,7.8769-17.75,0.4448-2.058-7.6199-5.8522-24.176-11.374-31.581-10.533-56.098-15.378-80.5-15.909l-10-0.2173-0.8801,18.19c-0.4841,10.004-0.6245,18.856-0.312,19.67,0.5885,1.5335,0.7565,1.5601,23.192,3.6664,20.482,1.9228,46.262,8.1943,65.458,15.924,5.2484,2.1134,10.048,3.8891,10.666,3.9461,0.6177,0.057,4.5218-7.2089,8.6759-16.146zm-816.71-65.459c15.577-18.402,14.318-15.776,9.7919-20.426-4.8007-4.9325-52.207-32.407-69.813-40.46-5.7572-2.6336-36.459-10.66-38.208-9.989-1.2381,0.475-10.057,35.22-9.1659,36.112,0.29563,0.2956,7.7208,2.3154,16.5,4.4885l15.963,3.9509,28.922,16.061c15.907,8.8334,30.263,17.391,31.902,19.017,1.6394,1.6257,3.2544,2.9559,3.5888,2.9559,0.33445,0,5.0681-5.2689,10.519-11.709zm-479.67-15.791c0.0632-7.7,0.4456-14.488,0.84968-15.085,1.3608-2.0096,17.606-5.2829,36.735-7.402,10.45-1.1576,21.925-2.4313,25.5-2.8303,3.575-0.3991,16.85-0.3865,29.5,0.028,25.063,0.8211,85.322-0.6328,86.783-2.0939,0.5309-0.5309,0.60376-8.25,0.17551-18.595-0.64932-15.686-0.93477-17.763-2.5221-18.354-0.98444-0.367-10.26-0.3836-20.613-0.037s-33.111,0.6841-50.573,0.75c-20.42,0.077-31.75,0.4767-31.75,1.1198,0,0.55-0.675,1-1.5,1s-1.5-0.5184-1.5-1.152c0-0.8408-3.3092-0.9823-12.25-0.524-24.803,1.2715-53.423,7.4428-73.52,15.853-9.2916,3.8884-12.391,5.6432-12.767,7.2288-1.0159,4.2803-5.4577,34.191-5.4602,36.768-0.002,2.3807,1.7282,3.7296,15.747,12.275,18.553,11.309,16.993,12.122,17.166-8.9497zm-247.16-67.25-0.259-51.75-15.75-0.2754-15.75-0.2754,0,52.025,0,52.025,16.009,0,16.009,0-0.259-51.75zm1960.2-0.2754,0-52.025-15.75,0.2754-15.75,0.2754-0.259,51.75-0.259,51.75,16.009,0,16.009,0,0-52.025zm-1382.7,39.775c0.26244-0.6875,1.3006-9.0428,2.307-18.567,1.466-13.874,1.5778-17.473,0.56248-18.101-3.0542-1.8876-72.298-3.7665-96.456-2.6173-12.492,0.5943-15.942,1.0618-16.387,2.2211-0.3099,0.8076-0.16451,9.3954,0.3231,19.084l0.88657,17.616,35-0.1482c19.25-0.082,41.975,0.2082,50.5,0.6438s17.139,0.8656,19.143,0.9555c2.1272,0.095,3.8416-0.3566,4.1202-1.0865zm-443.3-103.2c0.7838-0.9444,1.0612-6.2695,0.87245-16.75l-0.27667-15.365-51.75-0.259-51.75-0.259v16.342c0,8.9883,0.3,16.642,0.66667,17.009,0.36667,0.3667,23.262,0.6667,50.878,0.6667,41.552,0,50.409-0.2388,51.36-1.3846zm143.87-15.865,0.27418-16.75-52.024,0-52.024,0,0,16.333c0,8.9834,0.30404,16.637,0.67565,17.009,0.37161,0.3716,23.659,0.5591,51.75,0.4167l51.074-0.259,0.27418-16.75zm143.13,15.865c0.7838-0.9444,1.0612-6.2695,0.87245-16.75l-0.27667-15.365-51.687-0.259-51.687-0.2589-0.67153,4.478c-0.84224,5.6165-0.19647,26.611,0.87016,28.29,1.2323,1.9396,100.97,1.8087,102.58-0.1346zm143.87-15.865,0.27418-16.75-52.024,0-52.024,0,0,16.333c0,8.9834,0.30404,16.637,0.67565,17.009,0.37161,0.3716,23.659,0.5591,51.75,0.4167l51.074-0.259,0.27418-16.75zm143.13,15.865c0.7838-0.9444,1.0612-6.2695,0.87245-16.75l-0.27667-15.365-51.631-0.2589-51.631-0.259-0.60532,2.259c-0.98378,3.6713-0.71695,26.407,0.34263,29.194l0.97525,2.5651h50.402c41.715,0,50.6-0.2386,51.551-1.3846zm143.87-15.865,0.27418-16.75-52.024,0-52.024,0,0,16.333c0,8.9834,0.30404,16.637,0.67565,17.009,0.37161,0.3716,23.659,0.5591,51.75,0.4167l51.074-0.259,0.27418-16.75zm184.74,15c0.3059-1.2375,0.427-8.775,0.2691-16.75l-0.2871-14.5-71.937-0.2567c-56.888-0.2029-72.104,0.01-72.735,1-1.1802,1.859-1.0011,28.566,0.20673,30.822,1.0086,1.8847,2.8681,1.9343,72.481,1.9343h71.446l0.5561-2.25zm143.26-15,0.2742-16.75-52.024,0-52.024,0,0,16.417c0,12.195,0.3214,16.548,1.25,16.926,0.6875,0.28,23.975,0.43,51.75,0.3333l50.5-0.1758,0.2742-16.75zm143.73,14c0.3259-1.7875,0.4588-9.325,0.2953-16.75l-0.2973-13.5h-52-52l-0.2767,15.365c-0.1887,10.48,0.089,15.806,0.8725,16.75,0.9513,1.1462,9.9001,1.3846,51.981,1.3846h50.832l0.5926-3.25zm143.27-14,0.2742-16.75-52.024,0-52.024,0,0,16.417c0,12.195,0.3214,16.548,1.25,16.926,0.6875,0.28,23.975,0.43,51.75,0.3333l50.5-0.1758,0.2742-16.75zm143.73,14c0.3259-1.7875,0.4588-9.325,0.2953-16.75l-0.2973-13.5h-52-52l-0.2767,15.365c-0.1887,10.48,0.089,15.806,0.8725,16.75,0.9513,1.1462,9.9001,1.3846,51.981,1.3846h50.832l0.5926-3.25zm143.27-14,0.2742-16.75-52.024,0-52.024,0,0,16.417c0,12.195,0.3214,16.548,1.25,16.926,0.6875,0.28,23.975,0.43,51.75,0.3333l50.5-0.1758,0.2742-16.75zm143.73,14c0.3259-1.7875,0.4588-9.325,0.2953-16.75l-0.2973-13.5h-52-52l-0.2767,15.365c-0.1887,10.48,0.089,15.806,0.8725,16.75,0.9513,1.1462,9.9001,1.3846,51.981,1.3846h50.832l0.5926-3.25z"/>
   <path fill="#000600" d="m-29.903,467.33c0-15.85,0.21874-18.477,1.5818-19,0.86998-0.3339,24.233-0.607,51.918-0.607s51.048,0.2731,51.918,0.607c1.363,0.523,1.5818,3.1505,1.5818,19v18.393h-53.5-53.5v-18.393zm105.5-0.607,0-16.5-51.435-0.2592c-40.485-0.204-51.605,0.01-52.235,1-0.96791,1.5247-1.1104,31.146-0.15443,32.101,0.37157,0.3716,23.884,0.5591,52.25,0.4167l51.574-0.2589v-16.5zm38.175,18.342c-1.1053-1.1053-0.77828-33.281,0.35984-35.408,1.003-1.8742,2.646-1.9343,52.878-1.9343,42.886,0,52.04,0.2387,52.989,1.3815,0.78963,0.9515,1.0612,6.7885,0.87244,18.75l-0.27412,17.368-53.075,0.2587c-29.191,0.1422-53.379-0.045-53.75-0.4167zm105.32-18.351,0-17.009-51.75,0.259-51.75,0.259-0.27418,16.75-0.27418,16.75,52.024,0,52.024,0,0-17.009zm38,0.616c0-15.85,0.21874-18.477,1.5818-19,0.86998-0.3339,24.233-0.607,51.918-0.607s51.048,0.2731,51.918,0.607c1.363,0.523,1.5818,3.1505,1.5818,19v18.393h-53.5-53.5v-18.393zm105.5-0.607,0-16.5-51.435-0.2592c-40.485-0.204-51.605,0.01-52.235,1-0.9679,1.5247-1.1104,31.146-0.15443,32.101,0.37157,0.3716,23.884,0.5591,52.25,0.4167l51.574-0.2589v-16.5zm38.175,18.342c-1.1053-1.1053-0.77828-33.281,0.35984-35.408,1.003-1.8742,2.646-1.9343,52.878-1.9343,42.886,0,52.04,0.2387,52.989,1.3815,0.78963,0.9515,1.0612,6.7885,0.87244,18.75l-0.27412,17.368-53.075,0.2587c-29.191,0.1422-53.379-0.045-53.75-0.4167zm105.32-18.351,0-17.009-51.75,0.259-51.75,0.259-0.27418,16.75-0.27418,16.75,52.024,0,52.024,0,0-17.009zm38.228,0.259,0.27207-18.75,51-0.2769c28.05-0.1523,52.012-0.031,53.25,0.269,2.2325,0.5418,2.25,0.69,2.25,19.027v18.481h-53.522-53.522l0.27206-18.75zm105.27-0.25,0-16.5-51.435-0.2592c-40.485-0.204-51.605,0.01-52.235,1-0.9679,1.5247-1.1104,31.146-0.15443,32.101,0.37157,0.3716,23.884,0.5591,52.25,0.4167l51.574-0.2589v-16.5zm38.175,18.342c-1.1053-1.1053-0.77828-33.281,0.35984-35.408,1.003-1.8742,2.646-1.9343,52.878-1.9343,42.886,0,52.04,0.2387,52.989,1.3815,0.78963,0.9515,1.0612,6.7885,0.87244,18.75l-0.27412,17.368-53.075,0.2587c-29.191,0.1422-53.379-0.045-53.75-0.4167zm105.32-18.351,0-17.009-51.75,0.259-51.75,0.259-0.27418,16.75-0.27418,16.75,52.024,0,52.024,0,0-17.009zm38.228,0.259,0.27207-18.75,73.5,0,73.5,0,0.2721,18.75,0.272,18.75-74.044,0-74.044,0,0.27206-18.75zm146.27-0.25,0-16.5-71.937-0.2567c-56.888-0.2029-72.104,0.01-72.735,1-0.96536,1.5206-1.1086,31.143-0.15526,32.097,0.37026,0.3702,33.108,0.5577,72.75,0.4166l72.077-0.2565v-16.5zm38.175,18.342c-0.3714-0.3714-0.6753-8.4595-0.6753-17.974,0-16.079,0.1364-17.371,1.9343-18.333,1.2615-0.6752,19.861-1.0352,53.481-1.0352h51.547l0.5546,2.25c0.305,1.2375,0.426,9.675,0.269,18.75l-0.2855,16.5-53.075,0.2587c-29.191,0.1422-53.378-0.045-53.75-0.4167zm105.32-18.351,0-17.009-51.75,0.259-51.75,0.259-0.2742,16.75-0.2742,16.75,52.024,0,52.024,0,0-17.009zm38,0.5281c0-18.337,0.017-18.485,2.25-19.027,1.2375-0.3003,25.2-0.4213,53.25-0.269l51,0.2769,0.2721,18.75,0.272,18.75h-53.522-53.522v-18.481zm105.5-0.5191,0-16.5-50.886-0.2592c-36.745-0.1872-51.265,0.055-52.25,0.8724-1.0421,0.8649-1.3636,4.718-1.3636,16.343,0,8.366,0.304,15.515,0.6756,15.886,0.3715,0.3716,23.884,0.5591,52.25,0.4167l51.574-0.2589v-16.5zm38.175,18.342c-0.3714-0.3714-0.6753-8.4595-0.6753-17.974,0-16.079,0.1364-17.371,1.9343-18.333,1.2607-0.6747,19.673-1.0352,52.878-1.0352,42.121,0,51.142,0.2392,52.09,1.3815,0.7896,0.9515,1.0612,6.7885,0.8724,18.75l-0.2741,17.368-53.075,0.2587c-29.191,0.1422-53.378-0.045-53.75-0.4167zm105.32-18.351,0-17.009-51.75,0.259-51.75,0.259-0.2742,16.75-0.2742,16.75,52.024,0,52.024,0,0-17.009zm38,0.5281c0-18.337,0.017-18.485,2.25-19.027,1.2375-0.3003,25.2-0.4213,53.25-0.269l51,0.2769,0.2721,18.75,0.272,18.75h-53.522-53.522v-18.481zm105.5-0.5191,0-16.5-51.435-0.2592c-40.486-0.204-51.606,0.01-52.235,1-0.9679,1.5247-1.1104,31.146-0.1544,32.101,0.3715,0.3716,23.884,0.5591,52.25,0.4167l51.574-0.2589v-16.5zm38.175,18.342c-0.3714-0.3714-0.6753-8.4595-0.6753-17.974,0-16.079,0.1364-17.371,1.9343-18.333,1.2607-0.6747,19.673-1.0352,52.878-1.0352,42.121,0,51.142,0.2392,52.09,1.3815,0.7896,0.9515,1.0612,6.7885,0.8724,18.75l-0.2741,17.368-53.075,0.2587c-29.191,0.1422-53.378-0.045-53.75-0.4167zm105.32-18.351,0-17.009-51.75,0.259-51.75,0.259-0.2742,16.75-0.2742,16.75,52.024,0,52.024,0,0-17.009zm38,0.5281c0-18.337,0.017-18.485,2.25-19.027,1.2375-0.3003,25.2-0.4213,53.25-0.269l51,0.2769,0.2721,18.75,0.272,18.75h-53.522-53.522v-18.481zm105.5-0.5191,0-16.5-51.435-0.2592c-40.486-0.204-51.606,0.01-52.235,1-0.9679,1.5247-1.1104,31.146-0.1544,32.101,0.3715,0.3716,23.884,0.5591,52.25,0.4167l51.574-0.2589v-16.5zm-1931.5-79.523,0-53.523,17.75,0.273,17.75,0.2731,0.25876,53.25,0.25876,53.25-18.009,0-18.009,0,0-53.523zm34.025,49.958c1.3629-3.5846,1.3066-97.947-0.05994-100.5-0.95249-1.7798-2.2278-1.9343-15.965-1.9343s-15.012,0.1545-15.965,1.9343c-1.1318,2.1147-1.5107,94.438-0.41018,99.941l0.625,3.125h15.4,15.4l0.97525-2.5651zm1926.4,2.3151c-0.2633-0.6875-0.3616-24.65-0.2186-53.25l0.26-52,17.75-0.2731,17.75-0.273v53.523,53.523h-17.531c-13.103,0-17.652-0.3157-18.01-1.25zm34.049-2c0.3003-1.2375,0.4214-24.75,0.269-52.25l-0.277-50-15-0.249c-8.3784-0.1391-15.662,0.1759-16.5,0.7135-1.3004,0.8344-1.5,7.5888-1.5,50.749,0,27.383,0.3234,50.574,0.7186,51.536,0.6408,1.5606,2.3977,1.75,16.231,1.75,15.258,0,15.521-0.037,16.058-2.25zm-1752.2-129.46l-17.25-0.3404,0.006-47.726c0.003-26.25,0.295-51.439,0.64822-55.976l0.64222-8.25h20.352c18.672,0,20.361,0.1444,20.467,1.75,0.24342,3.7073-0.32274,109.77-0.58742,110.04-0.63982,0.6697-8.006,0.8216-24.277,0.5004zm22.099-2.0488c0.25684-0.4156,0.79772-24.649,1.2019-53.853,0.55714-40.25,0.45085-53.273-0.43928-53.823-0.64583-0.3992-8.7127-0.9808-17.926-1.2925-14.966-0.5063-16.935-0.3837-18.469,1.1498-1.5473,1.5474-1.7168,4.7406-1.719,32.395-0.001,16.873-0.29766,40.454-0.65846,52.402l-0.65601,21.724,2.4085,0.963c2.8397,1.1355,35.576,1.4372,36.257,0.3342zm-264.11-61.971,0.2587-53.773,15.5-0.2862c8.525-0.1575,16.516-0.035,17.759,0.2712l2.2588,0.5575-0.25875,53.229-0.25875,53.229-17.759,0.2731-17.759,0.2731,0.2587-53.773zm33.427,51.394c0.92487-0.9258,1.7408-97.854,0.85374-101.42-0.55156-2.2158-0.80249-2.25-16.496-2.25h-15.936l-0.59142,3.25c-0.32528,1.7875-0.45817,24.979-0.29531,51.537,0.25501,41.586,0.50425,48.426,1.7961,49.286,1.7854,1.1892,29.44,0.8235,30.668-0.4054zm1927,1.6658c-0.3667-0.3666-0.6667-24.421-0.6667-53.455v-52.788l3.25-0.5917c1.7875-0.3254,9.775-0.4583,17.75-0.2953l14.5,0.2964,0.2587,53.75,0.2587,53.75h-17.342c-9.5382,0-17.642-0.3-18.009-0.6667zm32.771-1.9138c1.4061-1.4062,1.5519-7.1719,1.3214-52.25l-0.2591-50.67h-15.99-15.99l-0.6415,3c-0.8409,3.9329-1.0647,89.86-0.2494,95.808,0.7552,5.5098,0.3168,5.371,17.55,5.5561,10.352,0.1112,12.969-0.1539,14.259-1.4443zm-536.44-70.442,0-56.022,18.75,0.272,18.75,0.2721,0.2584,55.75,0.2584,55.75-19.008,0-19.008,0,0-56.022zm36.023,53.022c1.0342-1.6393,1.3628-100.96,0.3466-104.75-0.5949-2.2199-0.8273-2.25-17.37-2.25-16.542,0-16.775,0.03-17.37,2.25-0.3317,1.2375-0.6091,25.055-0.6166,52.929-0.012,45.646,0.1491,50.841,1.6261,52.318,1.4076,1.4076,3.82,1.5947,17.038,1.3215,12.352-0.2554,15.586-0.6152,16.345-1.8184zm-1266.8-121.61c-0.69876-1.821,0.58569-108.43,1.3207-109.62,0.7668-1.2407,40.131-0.9472,40.905,0.305,0.36573,0.5918,0.33193,25.792-0.0751,56l-0.74008,54.924h-20.397c-17.808,0-20.476-0.2039-21.014-1.6062zm39.812-6.3938c0.34821-3.575,0.68571-27.935,0.75-54.133l0.11688-47.633-16.75-0.4174c-9.2125-0.2296-17.705-0.241-18.872-0.025-3.1378,0.5798-3.3599,4.4971-3.3697,59.422l-0.009,48.714,9.75,0.344c5.3625,0.1892,13.8,0.318,18.75,0.2862l9-0.058,0.63312-6.5zm-266.13-49.523,0-53.523,17.75,0.273,17.75,0.2731,0.25876,53.25,0.25876,53.25-18.009,0-18.009,0,0-53.523zm34.025,49.958c0.58486-1.5383,0.97525-21.925,0.97525-50.929,0-42.633-0.18618-48.55-1.5714-49.935-1.283-1.283-4.2133-1.5714-15.965-1.5714-13.207,0-14.479,0.1595-15.429,1.9343-1.1318,2.1147-1.5107,94.438-0.41018,99.941l0.625,3.125h15.4,15.4l0.97525-2.5651zm1926.4,2.3151c-0.2633-0.6875-0.3616-24.65-0.2186-53.25l0.26-52,17.75-0.2731,17.75-0.273v53.523,53.523h-17.531c-13.103,0-17.652-0.3157-18.01-1.25zm34.049-2c0.3003-1.2375,0.4214-24.75,0.269-52.25l-0.277-50-15-0.249c-8.3784-0.1391-15.662,0.1759-16.5,0.7135-1.3004,0.8344-1.5,7.5888-1.5,50.749,0,27.383,0.3234,50.574,0.7186,51.536,0.6408,1.5606,2.3977,1.75,16.231,1.75,15.258,0,15.521-0.037,16.058-2.25zm-537.27-75.5,0.2584-55.75,18.5,0,18.5,0,0.2584,55.75,0.2584,55.75-19.017,0-19.017,0,0.2584-55.75zm35.723,52.816c1.132-2.115,1.5121-98.431,0.4102-103.94l-0.625-3.125h-16.75-16.75l-0.625,3.125c-0.3437,1.7188-0.625,25.704-0.625,53.3,0,37.692,0.2986,50.474,1.2,51.375,0.8318,0.8318,6.0366,1.2,16.965,1.2,14.563,0,15.844-0.1475,16.8-1.9343zm-1492.8-170.45c0-47.786,0.16672-53.48,1.5818-54.023,2.0508-0.787,29.225-0.7654,32.177,0.026l2.2587,0.6052-0.2587,53.131-0.2587,53.131-17.75,0.2731-17.75,0.273v-53.416zm33.669,51.037c0.92403-0.9263,1.7388-97.857,0.85248-101.42-0.55143-2.2152-0.80513-2.25-16.424-2.25-15.607,0-15.874,0.037-16.467,2.25-1.0573,3.9453-0.71019,97.41,0.37234,100.26l1.0026,2.6371,14.917-0.322c8.2043-0.1771,15.291-0.6966,15.747-1.1545zm1927,1.667c-0.3667-0.3666-0.6667-24.421-0.6667-53.455v-52.788l3.25-0.5917c1.7875-0.3254,9.775-0.4583,17.75-0.2953l14.5,0.2964,0.2587,53.75,0.2587,53.75h-17.342c-9.5382,0-17.642-0.3-18.009-0.6667zm32.771-1.9138c1.4061-1.4062,1.5519-7.1719,1.3214-52.25l-0.2591-50.67h-15.99-15.99l-0.6415,3c-0.8413,3.9345-1.0645,89.861-0.2488,95.812,0.4134,3.016,1.1853,4.7395,2.25,5.0236,0.8914,0.2378,7.5511,0.4846,14.799,0.5484,10.788,0.095,13.465-0.1707,14.759-1.4645zm-1765.8-1.6699c-0.85376-2.4013,0.54426-107.27,1.4534-109.02,0.83801-1.6181,2.6175-1.7476,20.621-1.5l19.704,0.271,0.31351,34.5c0.17243,18.975,0.0101,44.062-0.36069,55.75l-0.67421,21.25h-20.306c-15.341,0-20.415-0.3056-20.75-1.25zm40.36-53.25c0.32017-29.15,0.38452-53.562,0.14301-54.25-0.52402-1.4917-36.747-1.8323-37.661-0.3542-0.3045,0.4927-0.85415,24.756-1.2214,53.918l-0.66782,53.022,2.9124,0.4438c1.6018,0.2442,10.337,0.3936,19.412,0.3321l16.5-0.1117,0.58214-53zm1189.2-28.25,0.2584-55.75,16.5-0.2855c9.075-0.157,17.512-0.036,18.75,0.269l2.25,0.5546v55.481,55.481h-19.008-19.008l0.2584-55.75zm35.723,52.816c1.3678-2.5557,1.4242-100.91,0.06-104.5l-0.9753-2.5651h-16.4-16.4l-0.625,3.125c-0.8047,4.0236-0.8217,102.2-0.018,104.29,0.5193,1.3532,2.9711,1.5818,16.965,1.5818,15.149,0,16.434-0.1429,17.393-1.9343zm-1493-164.59,0-53.523,17.75,0.273,17.75,0.2731,0.25876,53.25,0.25876,53.25-18.009,0-18.009,0,0-53.523zm34.025,49.958c0.58486-1.5383,0.97525-21.925,0.97525-50.929,0-42.633-0.18618-48.55-1.5714-49.935-1.283-1.283-4.2133-1.5714-15.965-1.5714-13.207,0-14.479,0.1595-15.429,1.9343-1.1318,2.1147-1.5107,94.438-0.41018,99.941l0.625,3.125h15.4,15.4l0.97525-2.5651zm1926.4,2.3151c-0.2633-0.6875-0.3616-24.65-0.2186-53.25l0.26-52,17.75-0.2731,17.75-0.273v53.523,53.523h-17.531c-13.103,0-17.652-0.3157-18.01-1.25zm33.934-1.3318c0.3339-0.87,0.607-24.261,0.607-51.981v-50.399l-2.3853-0.5987c-3.4314-0.8612-29.296-0.098-30.284,0.8939-1.0137,1.0173-1.1217,99.457-0.1118,101.92,0.6406,1.56,2.3936,1.75,16.143,1.75,13.143,0,15.514-0.234,16.031-1.5818zm-1751.6-6.1658-13.75-0.3088,0.0876-50.722c0.0482-27.897,0.38568-52.972,0.75-55.722l0.66239-5,19.428-0.2722c12.055-0.1689,19.809,0.1091,20.433,0.7325,1.5225,1.5226,0.84719,110.29-0.69086,111.27-0.64321,0.4092-3.8695,0.6522-7.1695,0.5399-3.3-0.1122-12.188-0.343-19.75-0.5129zm26.494-38.252c0.40945-20.075,0.63445-44.375,0.5-54l-0.24446-17.5-18.725-0.272-18.725-0.2719-0.46107,2.2719c-0.2536,1.2496-0.70457,25.318-1.0022,53.485-0.50499,47.798-0.42587,51.281,1.1865,52.232,1.0395,0.6133,8.6974,0.9268,19.228,0.7871l17.5-0.2321,0.74446-36.5zm1188.4,11.333c-0.3667-0.3666-0.6667-25.518-0.6667-55.893,0-49.437,0.1658-55.29,1.5818-55.833,2.0483-0.786,31.222-0.7661,34.168,0.023l2.25,0.603v55.276c0,49.482-0.1658,55.34-1.5818,55.883-2.1583,0.8282-34.918,0.7735-35.752-0.06zm35.703-3.5833c1.0353-3.8631,0.7123-101.4-0.3449-104.18l-0.9753-2.5651h-16.4-16.4l-0.625,3.125c-0.8047,4.0236-0.8217,102.2-0.018,104.29,0.5201,1.3554,3.008,1.5818,17.383,1.5818,16.552,0,16.784-0.03,17.379-2.25zm-1493.3-157.11v-53.406l2.25-0.603c2.9807-0.7988,26.644-0.8015,30.634,0l3.1337,0.6268-0.2587,53.123-0.2587,53.123-17.75,0.2731-17.75,0.273v-53.406zm33.669,51.028c0.92403-0.9263,1.7388-97.857,0.85248-101.42-0.55143-2.2152-0.80513-2.25-16.424-2.25-15.607,0-15.874,0.037-16.467,2.25-1.0573,3.9453-0.71019,97.41,0.37234,100.26l1.0026,2.6371,14.917-0.322c8.2043-0.1771,15.291-0.6966,15.747-1.1545zm1927,1.6658c-0.3667-0.3666-0.6667-24.383-0.6667-53.369v-52.702l3.75-0.6199c4.8427-0.8004,28.603-0.8274,30.668-0.035,1.4151,0.543,1.5818,6.235,1.5818,54v53.393h-17.333c-9.5334,0-17.633-0.3-18-0.6667zm33.307-2.2849c0.6964-1.3012,0.958-18.714,0.7852-52.25l-0.2593-50.298h-15.99-15.99l-0.6415,3c-0.8413,3.9345-1.0645,89.861-0.2488,95.812,0.4134,3.016,1.1853,4.7395,2.25,5.0236,0.8914,0.2378,7.7924,0.4846,15.336,0.5484,12.643,0.1069,13.796-0.036,14.759-1.8356zm-1758.9-12.779-5.4076-0.3849,0.71041-55.166c0.52816-41.014,1.0176-55.381,1.9077-56.004,1.7044-1.1938,38.58-0.2319,39.851,1.0396,0.70837,0.7083,0.76843,18.335,0.19046,55.89l-0.84424,54.856-15.5,0.077c-8.525,0.042-17.933-0.096-20.908-0.3077zm35.363-16.519c0.36627-8.3875,0.52615-32.8,0.35529-54.25l-0.31065-39h-18.49-18.49l-0.6415,3c-0.85928,4.0184-1.0609,103.98-0.21147,104.83,0.36666,0.3667,8.8693,0.6667,18.895,0.6667h18.228l0.66593-15.25zm1186.5-65.75,0-56.044,18.75,0.272,18.75,0.2721,0,55.5,0,55.5-18.75,0.2721-18.75,0.272,0-56.044zm36.393,52.418c1.0397-2.7095,0.6908-102.07-0.3682-104.85l-0.9753-2.5651h-16.05-16.05l-0.9753,2.5651c-1.059,2.7855-1.4079,102.14-0.3682,104.85,0.5201,1.3555,3.0088,1.5818,17.393,1.5818s16.873-0.2263,17.393-1.5818zm-1493.1-181.67,0.25574-83.25,16.367-0.27533c11.221-0.18877,16.802,0.0855,17.75,0.87244,1.1568,0.96009,1.383,14.619,1.383,83.525v82.378h-18.006-18.006l0.25574-83.25zm33.768,79.718c1.0445-2.7472,1.3951-155,0.36635-159.1-0.59511-2.3711-0.60366-2.3724-16.379-2.3724-15.753,0-15.784,0.005-16.376,2.3606-0.77396,3.0837-0.77396,156.2,0,159.28,0.5906,2.3531,0.6414,2.3606,16.009,2.3606h15.416l0.96276-2.5322zm1926.7,2.8655c-0.3667-0.3666-0.6667-37.436-0.6667-82.378,0-68.339,0.2263-81.899,1.383-82.859,0.9481-0.7869,6.5289-1.0612,17.75-0.87244l16.367,0.27533,0.2557,83.25,0.2558,83.25h-17.339c-9.5365,0-17.639-0.3-18.006-0.6667zm33.84-2.5833c0.2994-1.2375,0.4205-38.025,0.2691-81.75l-0.2753-79.5h-15.955-15.955l-0.7923,3.8136c-1.0352,4.9822-0.5447,156.8,0.5118,158.44,0.5896,0.911,4.9916,1.25,16.231,1.25,15.165,0,15.431-0.037,15.966-2.25zm-1762-18.92c-1.7709-1.029-1.832-2.5033-1.2516-30.22,0.33554-16.026,0.86446-64.913,1.1754-108.64,0.31092-43.725,0.79491-80.297,1.0755-81.27,0.46985-1.6304,2.1069-1.7491,20.686-1.5l20.176,0.27047-0.25348,86c-0.13942,47.3-0.52773,97.362-0.86291,111.25l-0.60942,25.25-19.137-0.03c-11.853-0.019-19.846-0.4422-20.999-1.1122zm38.697-1.6074c0.24933-0.4125,0.73581-44.85,1.0811-98.75,0.34526-53.9,0.88647-101.45,1.2027-105.67,0.31623-4.2186,0.26841-9.0658-0.10628-10.772l-0.68124-3.1017-18.666,0.27175-18.666,0.27176-0.62519,18c-1.0636,30.621-0.98119,89.5,0.12519,89.5,1.3112,0,1.2981,2.734-0.0152,3.1717-1.1295,0.3765-2.7568,103.37-1.6777,106.19,0.55286,1.4407,2.8949,1.642,19.102,1.642,10.16,0,18.676-0.3375,18.926-0.75zm1185.7-80.25,0-56.044,18.75,0.27206,18.75,0.27207,0,55.5,0,55.5-18.75,0.2721-18.75,0.272,0-56.044zm36.517,51.75c0.3053-1.2375,0.4264-25.329,0.2691-53.537-0.247-44.288-0.4907-51.416-1.786-52.235-0.825-0.52128-8.3736-0.95468-16.775-0.9631l-15.275-0.0153-0.9753,2.5651c-1.059,2.7855-1.4079,102.14-0.3682,104.85,0.5203,1.3559,3.0166,1.5818,17.481,1.5818,16.668,0,16.881-0.027,17.429-2.25zm-1493.5-204.27,0-53.523,17.75,0.27308,17.75,0.27307,0.25876,53.25,0.25876,53.25-18.009,0-18.009,0,0-53.523zm33.965,50.589c1.3665-2.5534,1.4228-96.916,0.05994-100.5l-0.97525-2.5651h-15.05-15.05l-0.97525,2.5651c-1.0569,2.7798-1.379,96.326-0.34496,100.18,0.5921,2.2094,0.87985,2.25,15.951,2.25,14.151,0,15.429-0.1509,16.383-1.9343zm1926.3-50.316,0.2588-53.25,17.75-0.27307,17.75-0.27308,0,53.523,0,53.523-18.009,0-18.009,0,0.2587-53.25zm34.152,50.668c0.3339-0.86998,0.607-23.783,0.607-50.918s-0.2731-50.048-0.607-50.918c-0.5156-1.3437-2.8107-1.5795-15.25-1.5665-8.0536,0.008-15.318,0.4419-16.143,0.96328-1.3006,0.82192-1.5,7.5678-1.5,50.735,0,27.383,0.3234,50.574,0.7186,51.537,0.6406,1.56,2.3936,1.75,16.143,1.75,13.143,0,15.514-0.23401,16.031-1.5818zm-1459-31.46c-14.85-3.8216-28.012-7.223-29.25-7.5586-3.2949-0.89363-2.9595-3.5788,2.8909-23.143,5.0894-17.02,5.1958-17.25,7.9697-17.25,1.5463,0,14.163,2.969,28.037,6.5978l25.226,6.5978,26.179-0.72512,26.179-0.72513,1.1061,7.8773c4.3734,31.147,4.5109,32.543,3.2783,33.305-1.3378,0.82678-34.699,2.0954-53.117,2.02-10.898-0.0447-12.914-0.41109-38.5-6.9956zm89.615,3.3334c0.78615-0.78615,0.48481-5.6426-1.082-17.438-1.1944-8.9914-2.4146-17.195-2.7116-18.231-0.51604-1.7992-1.7024-1.8601-26.68-1.3697l-26.14,0.51323-24.633-6.3803c-13.548-3.5092-25.345-6.3803-26.216-6.3803-1.149,0-2.567,3.217-5.1795,11.75-1.9786,6.4625-4.2441,13.743-5.0344,16.178-0.79035,2.4355-1.437,5.2354-1.437,6.2221,0,2.0778,0.23823,2.1548,33.5,10.83l23,5.9984,30.762-0.3016c20.476-0.20075,31.127-0.66596,31.852-1.3912zm44.05-14.414c-4.2714-9.994-11.571-33.864-10.633-34.769,0.5325-0.51344,8.028-3.8643,16.657-7.4463,17.999-7.472,22.777-10.498,52.638-33.342,11.73-8.9731,21.63-16.308,22-16.299,1.1903,0.0271,2.4783,1.2569,15.435,14.738,7.0059,7.2893,12.738,14.066,12.738,15.059,0,1.1657-7.286,7.4585-20.547,17.747-32.133,24.929-41.842,31.135-62.406,39.894-9.7091,4.1351-19.084,7.8046-20.833,8.1544-3.006,0.6012-3.2823,0.39674-5.0485-3.7357zm22.548-5.4179c10.36-4.3952,21.754-10.082,27.288-13.618,8.4009-5.3695,45.078-33.021,53.75-40.524l3.2501-2.8117-12.799-13.433c-9.5525-10.025-13.167-13.215-14.25-12.575-0.79784,0.47177-10.676,7.9102-21.951,16.53-27.225,20.813-31.881,23.733-49.5,31.036-8.25,3.4198-15.574,6.7455-16.275,7.3906-1.0228,0.94112-0.37796,3.73,3.263,14.112,6.8846,19.632,7.6061,21.44,8.5568,21.44,0.48384,0,8.8841-3.3958,18.667-7.5462zm-245.21-12.358c-15.953-6.2028-55.898-22.776-73.75-30.599-9.3657-4.1043-10.75-5.0195-10.75-7.1074,0-1.3181,2.9909-10.045,6.6464-19.393,5.5122-14.096,6.9868-16.996,8.6417-16.996,1.0975,0,14.419,5.2432,29.604,11.652,15.185,6.4084,37.508,15.588,49.608,20.398,16.735,6.6532,22.069,9.1901,22.287,10.601,0.22254,1.4374-6.8992,22.044-12.303,35.6-1.0768,2.7011-3.8189,2.131-19.984-4.154zm24.148-13.563c3.4526-9.264,6.0685-17.182,5.813-17.595-0.25553-0.41345-7.1014-3.3369-15.213-6.4966s-30.21-12.227-49.108-20.15-34.584-14.181-34.858-13.906c-0.73077,0.73077-13.283,32.497-13.283,33.615,0,1.3575,2.3354,2.4423,33.5,15.56,34.484,14.515,64.687,26.469,65.935,26.096,0.51449-0.1537,3.7603-7.8591,7.213-17.123zm-236.65-30.882,0-28.389-3.25-0.54307c-6.8868-1.1508-8.7521-2.4218-8.7226-5.9439,0.0496-5.9329,8.5178-36.243,10.219-36.578,1.0437-0.20504,1.8188-2.1446,2.3978-6l0.85564-5.697,20.25-0.27071,20.25-0.2707v11.002,11.002l2.75,0.6377c16.829,3.9025,42.664,10.899,50.25,13.609,8.6637,3.0945,9.5285,3.6379,9.8242,6.1733,0.18109,1.5527-2.2471,10.246-5.5,19.692-6.7847,19.7-5.4796,18.789-19.887,13.884-9.1813-3.126-33.971-9.9481-36.169-9.9538-0.93112-0.002-1.2967,5.5419-1.5,22.747l-0.26877,22.75-20.75,0.27029-20.75,0.27029v-28.389zm39.768,3.5989,0.26843-23.25,2.2316,0.0229c3.5884,0.0368,25.277,5.6342,37.448,9.6643,6.1688,2.0428,11.432,3.4978,11.697,3.2335,0.26433-0.26432,3.1824-8.2329,6.4846-17.708l6.004-17.227-3.6508-1.5254c-7.0714-2.9546-28.921-9.4102-43.967-12.991l-15.217-3.6209-0.28307-10.674-0.28306-10.674-18.427-0.27324c-14.073-0.20868-18.618,0.0276-19.235,1-0.44443,0.70028-0.81496,3.4107-0.82338,6.0232-0.0112,3.462-0.40604,4.75-1.4563,4.75-2.1175,0-2.3013,0.49722-7.0479,19.068l-4.3566,17.045,2.1728,0.90922c1.195,0.50007,4.0697,1.3878,6.3882,1.9726l4.2155,1.0634-0.62351,27.88-0.62352,27.88,2.408,0.46544c1.3244,0.256,10.058,0.40911,19.408,0.34026l17-0.12518,0.26843-23.25zm1174.7,16.169c-2.2-0.21623-8.95-0.88441-15-1.4848-12.244-1.2151-39.416-6.1905-46.75-8.5602-6.6063-2.1345-6.7899-0.31047,3.3959-33.727,2.9258-9.5984,3.0723-9.8394,5.6787-9.3439,1.4715,0.27978,9.0488,1.8893,16.838,3.5768,22.185,4.8058,41.125,6.4462,64.971,5.627,11.45-0.39332,20.37-0.30988,20.681,0.19346,1.0319,1.6697,4.8079,33.135,4.4964,37.468l-0.3115,4.3311-5,0.65416c-6.3129,0.82594-43.658,1.79-49,1.2649zm41.423-2.4257c5.7326-0.51661,10.797-1.3134,11.254-1.7706,0.9755-0.97556-3.5986-37.044-4.8576-38.303-0.4737-0.47379-7.5386-0.39334-15.838,0.18036-21.825,1.5087-43.516-0.16847-68.482-5.2952-7.975-1.6377-15.15-3.0512-15.944-3.1412-1.0379-0.11768-2.9317,4.7535-6.74,17.336-2.9131,9.625-5.301,18.074-5.3065,18.775-0.015,1.8861,3.7809,3.0811,21.49,6.7654,27.888,5.802,58.564,7.7835,84.423,5.4532zm52.659-17.243c-6.494-21.582-8.5819-29.187-8.5819-31.259,0-1.958,1.3543-2.7163,10.484-5.8699,26.452-9.1374,54.806-24.518,73.96-40.119,3.0401-2.4762,6.3274-4.5021,7.3052-4.5021,2.1744,0,25.869,27.633,26.769,31.218,0.7797,3.1066-2.9231,6.4694-19.519,17.727-20.606,13.977-39.785,24.407-58.747,31.946-10.622,4.2235-25.517,9.1086-27.773,9.1086-0.9066,0-2.3095-2.9687-3.8986-8.25zm14.972,2.8505c15.934-5.4458,22.746-8.2323,34.335-14.045,20.575-10.319,44.775-25.684,54.33-34.496l4.944-4.5595-12.652-14.823-12.652-14.823-3.1791,2.5906c-1.7484,1.4248-9.85,7.0715-18.003,12.548-16.963,11.394-37.776,22-55.176,28.116-6.6,2.32-12.406,4.5736-12.903,5.0081-1.2403,1.0852,9.1937,37.884,10.742,37.884,0.1476,0,4.7443-1.5298,10.215-3.3995zm-228.07-15.93c-14.267-6.8508-43.136-26.9-58.44-40.587-15.402-13.774-26.035-25.535-26.041-28.805-0.01-2.7973,28.251-27.295,31.429-27.249,1.26,0.0183,3.9621,2.2625,6.9231,5.75,13.402,15.785,49.053,42.957,68.504,52.211,7.3201,3.4827,7.3367,3.4998,6.8411,7-0.2733,1.9298-4.0305,10.709-8.3493,19.509-5.9214,12.065-8.3443,16.061-9.8525,16.249-1.1,0.13723-6.0566-1.6984-11.015-4.0792zm19.361-14.652c4.4845-9.3402,8.1536-17.436,8.1536-17.99,0-0.55425-4.1246-3.0792-9.1659-5.6111-20.746-10.419-45.921-29.512-63.457-48.126l-8.1228-8.6222-12.717,10.916c-6.9942,6.0037-13.576,11.533-14.627,12.288-1.0508,0.75459-1.909,1.8796-1.9071,2.5,0.01,2.0811,14.36,16.876,27.954,28.813,15.264,13.403,37.205,28.588,53.507,37.03,6.0697,3.1431,11.304,5.7306,11.632,5.75s4.2655-7.6068,8.75-16.947zm-556.05-14.683c-13.203-11.117-17.792-15.466-17.792-16.863,0-0.61737,2.8481-4.4636,6.3292-8.5471,8.9488-10.498,15.547-20.316,30.191-44.925,14.666-24.646,17.295-30.02,24.461-50,13.499-37.636,13.992-39.398,18.968-67.783,2.6304-15.005,5.0234-27.523,5.3178-27.818,0.59881-0.5988,38.619,3.4118,39.91,4.21,1.412,0.87264,0.95512,4.897-3.7222,32.789-3.1127,18.562-5.6789,30.568-8.1438,38.102-6.2354,19.058-16.307,45.986-17.329,46.333-0.54014,0.18334-0.98904,1.5333-0.99755,3-0.027,4.651-7.2071,18.934-21.952,43.667-16.387,27.489-22.526,36.66-32.295,48.25-9.1959,10.91-9.5018,10.904-22.946-0.41533zm20.392-0.58467c9.2895-10.654,17.749-23.288,34.109-50.936,15.426-26.07,21.173-37.822,20.266-41.435-0.33665-1.3413-0.0132-2.3735,0.84716-2.7037,1.6055-0.61607,6.9759-14.143,15.444-38.899,5.1377-15.02,6.5492-20.9,10.541-43.915,2.535-14.615,4.609-27.723,4.609-29.129,0-2.9522,0.68981-2.7856-21.879-5.2823-7.9086-0.87488-14.738-1.2214-15.176-0.76997-0.43806,0.4514-2.6645,12.071-4.9476,25.821-4.2969,25.878-5.8586,31.715-16.136,60.307-3.2238,8.9688-5.8615,17.144-5.8615,18.167,0,1.0229-0.34686,2.0098-0.77079,2.1932-0.42394,0.18333-2.0773,3.4833-3.6742,7.3333-3.3985,8.1935-29.235,52.056-37.211,63.173-3.0211,4.2108-7.7551,10.257-10.52,13.436-2.765,3.179-4.8625,6.2742-4.6612,6.8782,0.53322,1.5996,26.122,22.988,27.519,23.001,0.64957,0.006,4.0257-3.2511,7.5025-7.2386zm-812.94-46.477,0.2587-53.773,16.608-0.27354c13.194-0.21731,16.845,0.0115,17.759,1.1133,0.84308,1.0158,1.0817,15.401,0.89198,53.774l-0.25899,52.387-17.759,0.27311-17.759,0.27311,0.2587-53.773zm34.128,49.477c0.7872-2.9374,0.7872-96.563,0-99.5-0.59298-2.2127-0.86435-2.25-16.37-2.25-15.505,0-15.777,0.0373-16.37,2.25-0.79061,2.9502-0.81275,98.111-0.0233,100.17,0.518,1.3499,2.9199,1.5818,16.383,1.5818,15.515,0,15.786-0.0372,16.379-2.25zm1926.3,3.5833c-0.3667-0.36666-0.6667-24.201-0.6667-52.965,0-51.115,0.045-52.322,1.9819-53.359,1.2245-0.65534,8.0075-0.9554,17.75-0.78518l15.768,0.27548,0.2587,53.75,0.2587,53.75h-17.342c-9.5382,0-17.642-0.3-18.009-0.66667zm33.833-53.333,0-51.5-15.983,0-15.983,0-0.7093,4c-0.878,4.9512-1.0379,90.576-0.1788,95.774l0.6237,3.7741,16.115-0.27412,16.115-0.27413v-51.5zm-1864,36.94c-61.724-14.877-57.5-13.647-57.5-16.749,0-1.4176,1.6036-8.6801,3.5636-16.139,1.96-7.4588,4.0023-15.249,4.5385-17.311,0.87165-3.3525,1.3154-3.75,4.1864-3.7498,1.7663,0.00009,25.711,5.392,53.211,11.982s51.012,12.224,52.25,12.519c1.4162,0.338,2.25,1.2877,2.25,2.5629,0,1.6222-5.7414,25.433-8.6049,35.686-0.52874,1.8933-1.2837,2.2338-4.7617,2.1476-2.2734-0.0563-24.383-4.9832-49.133-10.949zm56.485-9.2557c2.4799-9.6897,3.9232-17.153,3.4082-17.624-0.49132-0.44926-24.068-6.3059-52.393-13.015-28.325-6.7088-52.037-12.367-52.694-12.574-1.3191-0.41513-2.4962,3.2235-7.3972,22.868-2.6752,10.723-2.9743,12.992-1.8071,13.714,0.76925,0.47584,11.749,3.3598,24.399,6.4088,78.786,18.99,80.002,19.262,81.092,18.145,0.60051-0.61475,3.0275-8.6807,5.3933-17.924zm1483.8-28.352c-14.788-12.7-18.747-16.493-18.747-17.964,0-0.66939,2.4242-4.0656,5.3872-7.547,14.035-16.491,32.789-49.879,40.661-72.389,1.7198-4.9178,3.7229-9.5607,4.4515-10.318,1.1204-1.1642,3.9361-0.59089,18.267,3.7193,23.019,6.9233,22.234,6.5722,22.234,9.9447,0,1.5604-1.3006,6.6341-2.8903,11.275-7.1167,20.775-18.598,43.449-32.883,64.938-11.952,17.978-20.294,28-23.309,28-1.0577,0-6.9842-4.3464-13.17-9.6587zm19.916,0.40326c8.1851-9.7324,25.15-35.779,31.748-48.745,11.402-22.403,19.968-45.021,17.852-47.137-1.5313-1.5313-35.606-11.863-36.366-11.027-0.3313,0.36483-2.3018,5.3883-4.3788,11.163-8.3409,23.191-26.614,55.757-40.224,71.688-2.4656,2.886-4.3281,5.6869-4.1388,6.2243,0.4118,1.1695,27.83,25.087,28.758,25.087,0.3555,0,3.3922-3.2649,6.7483-7.2554zm-475.15-30.915c-1.467-1.7435-5.8057-9.4348-9.6415-17.092-15.652-31.244-24.849-61.367-29.993-98.238-1.7037-12.211-1.7155-52.992-0.02-68,1.3919-12.318,7.0841-41.841,9.0135-46.75,1.4934-3.7992,3.3858-3.5968,24.13,2.5812l17.5,5.2116-0.09,3.9786c-0.049,2.1882-1.3005,9.6036-2.7807,16.479-12.362,57.42-4.44,114.19,23.426,167.88,3.8195,7.3587,6.9406,14.109,6.9357,15-0.01,0.95264-3.6114,3.8531-8.75,7.0373-19.582,12.135-24.628,15.083-25.817,15.083-0.6853,0-2.4463-1.4265-3.9134-3.17zm22.24-10.065c7.8375-4.9043,14.25-9.0495,14.25-9.2115,0-0.16199-3.119-6.3153-6.931-13.674-6.6026-12.745-16.074-36.059-19.451-47.879-2.7633-9.672-7.7589-34.281-8.3228-41-1.0459-12.46-0.729-47.572,0.5189-57.5,0.6913-5.5,2.6449-16.884,4.3414-25.297,1.6964-8.4131,2.9178-15.449,2.7143-15.636-0.6439-0.5899-34.814-10.568-36.19-10.568-3.6626,0-10.426,35.758-12.577,66.5-1.0554,15.079,0.3784,45.577,2.3319,49.6,0.6945,1.4302,1.0707,3.9086,0.8361,5.5075-1.1356,7.7368,7.9516,42.069,17.97,67.892,4.2209,10.88,16.029,34.748,19.42,39.256,2.8969,3.8503,1.0442,4.5523,21.089-7.9908zm-992.16,9.5033-10.913-0.3392,0.66654-55.158c0.51191-42.362,0.95574-55.341,1.9132-55.949,2.1964-1.3948,37.136-0.98931,39.11,0.45382,1.6407,1.1997,1.697,4.5677,0.94113,56.25l-0.80404,54.974-10,0.0537c-5.5,0.0295-14.911-0.0989-20.913-0.28549zm29.866-22.518c0.37097-11.688,0.53328-36.1,0.36069-54.25l-0.31379-33-18.266-0.27262-18.266-0.27262-0.98385,2.5877c-1.5684,4.1252-1.3142,105.16,0.26615,105.8,0.6875,0.27741,9.1877,0.53991,18.889,0.58333l17.639,0.0789,0.67449-21.25zm-275.45-89.273,0-53.523,17.75,0.273,17.75,0.2731,0.25876,53.25,0.25876,53.25-18.009,0-18.009,0,0-53.523zm33.992,50.538c0.71993-1.3452,0.97306-17.96,0.78518-51.537-0.23921-42.752-0.48308-49.682-1.7773-50.499-0.825-0.5213-7.9236-0.9547-15.775-0.9631l-14.275-0.015-0.97525,2.5651c-1.0569,2.7798-1.379,96.326-0.34496,100.18,0.5921,2.2094,0.87985,2.25,15.951,2.25,14.287,0,15.422-0.13732,16.411-1.9852zm1926.2-50.265,0.2588-53.25,17.75-0.2731,17.75-0.273,0,53.523,0,53.523-18.009,0-18.009,0,0.2587-53.25zm34.152,50.668c0.3339-0.86998,0.607-23.783,0.607-50.918s-0.2731-50.048-0.607-50.918c-0.5156-1.3438-2.8107-1.5795-15.25-1.5665-8.0536,0.01-15.318,0.4417-16.143,0.9628-1.2893,0.8145-1.5454,7.3078-1.8235,46.235-0.1779,24.908-0.03,48.1,0.3296,51.537l0.6531,6.25h15.813c13.497,0,15.902-0.23168,16.42-1.5818zm-264.12-49.344c-10.026-1.4851-18.512-2.9822-18.857-3.3269-0.3447-0.34468-0.085-8.4907,0.5764-18.102,2.2925-33.298-1.8254-64.242-13.048-98.045-3.2684-9.845-5.9425-18.627-5.9425-19.516,0-1.1392,5.2787-3.896,17.904-9.35,9.8469-4.2539,18.612-7.7344,19.477-7.7344,2.5244,0,4.1479,3.4376,10.523,22.281,12.359,36.529,17.33,73.403,15.06,111.72-0.6678,11.275-1.5968,21.512-2.0644,22.75-1.0345,2.7377-0.4737,2.7537-23.63-0.67613zm22.107-0.61332c0.3249-0.8467,1.1328-9.9153,1.7953-20.152,2.5196-38.93-2.6833-76.754-15.573-113.21-3.5786-10.122-6.9617-18.859-7.5181-19.415-0.6822-0.6822-6.4777,1.3809-17.796,6.3352-9.2316,4.0408-17.184,7.6867-17.672,8.1022-0.4937,0.4204,1.6121,7.9881,4.7496,17.068,10.428,30.179,15.831,68.678,13.587,96.813-0.4605,5.775-0.8626,12.794-0.8935,15.597l-0.056,5.0967,17.25,2.5349c21.213,3.1172,21.4,3.1276,22.127,1.2323zm-1512.9-39.341-3-0.6442,0.36247-54.488c0.3204-48.163,0.5457-54.633,1.9411-55.738,1.7717-1.4028,11.448-1.601,28.946-0.5927l11.25,0.6483-0.002,32.597c-0.001,17.928-0.29814,43.06-0.65972,55.847l-0.65771,23.25-17.59-0.1183c-9.6746-0.065-18.94-0.4082-20.59-0.7625zm37.5-53.619c0.275-28.6,0.16977-53.023-0.23385-54.273-0.73216-2.2674-0.77587-2.272-19-2l-18.266,0.2726-0.61457,16c-0.33802,8.8-0.67552,32.95-0.75,53.667-0.10533,29.295,0.1424,37.781,1.1146,38.182,0.6875,0.2837,9.35,0.4336,19.25,0.3333l18-0.1824,0.5-52zm586,28.523c-1.2252-0.7731-1.6065-4.8471-2.0812-22.235-0.54876-20.1-0.84511-22.628-5.308-45.288-2.5997-13.2-5.6482-27.98-6.7743-32.844-1.1261-4.8645-1.6626-9.1977-1.192-9.6294,1.0529-0.966,35.522-11.026,37.779-11.026,2.3433,0,2.8146,1.7183,8.9363,32.58,8.8754,44.745,8.6406,42.933,8.6406,66.641,0,18.742-0.20707,21.645-1.5818,22.172-2.5787,0.9895-36.786,0.6599-38.418-0.3702zm37.8-2.2228c0.83963-0.8396,1.2-6.3278,1.2-18.275,0-18.672-0.83854-24.698-9.5358-68.525-4.8681-24.531-6.1913-29.998-7.2612-30.003-0.38665,0-8.6972,2.3228-18.468,5.1654-14.368,4.18-17.675,5.4712-17.297,6.7528,0.25715,0.8715,3.2683,15.535,6.6914,32.585,6.1847,30.805,6.2262,31.126,6.5925,51,0.20275,11,0.5592,20.562,0.79212,21.25,0.59159,1.7462,35.543,1.793,37.286,0.05zm-900.56-77.527,0.2587-53.773,16.608-0.2735c13.194-0.2174,16.845,0.012,17.759,1.1133,0.84308,1.0158,1.0817,15.401,0.89198,53.774l-0.25899,52.387-17.759,0.2731-17.759,0.2731,0.2587-53.773zm34.128,49.477c0.7872-2.9374,0.7872-96.563,0-99.5-0.59298-2.2127-0.86435-2.25-16.37-2.25-15.505,0-15.777,0.037-16.37,2.25-0.79061,2.9502-0.81275,98.111-0.0233,100.17,0.518,1.3499,2.9199,1.5818,16.383,1.5818,15.515,0,15.786-0.037,16.379-2.25zm1926.3,3.5833c-0.3667-0.3666-0.6667-24.201-0.6667-52.965,0-51.115,0.045-52.322,1.9819-53.359,1.2245-0.6553,8.0075-0.9554,17.75-0.7852l15.768,0.2755,0.2587,53.75,0.2587,53.75h-17.342c-9.5382,0-17.642-0.3-18.009-0.6667zm33.833-53.333,0-51.5-15.983,0-15.983,0-0.7093,4c-0.878,4.9512-1.0379,90.576-0.1788,95.774l0.6237,3.7741,16.115-0.2741,16.115-0.2741v-51.5zm-774.75-8.233c-19.716-9.5165-19.151-8.4787-12.289-22.577,14.755-30.316,59.469-84.343,68.707-83.016,2.4227,0.3479,27.833,28.813,27.833,31.179,0,0.7045-2.8125,3.7081-6.25,6.6746-16.434,14.182-39.981,44.866-50.82,66.223-4.4832,8.8334-5.2061,9.743-7.6893,9.676-1.5075-0.041-10.278-3.7123-19.491-8.159zm24.243-1.7522c10.584-21.05,35.651-53.898,51.376-67.322,3.0973-2.6442,5.6314-5.1624,5.6314-5.5959,0-0.9647-22.462-27.231-24.387-28.517-3.9889-2.6658-34.58,30.883-51.503,56.482-12.42,18.787-21.172,35.284-19.563,36.874,1.0666,1.054,32.533,16.053,33.693,16.061,0.4064,0,2.5456-3.5888,4.7538-7.9807zm426.81-21.593c-17.299-25.079-39.301-47.954-60.424-62.821-4.6094-3.2445-8.3808-6.4509-8.3808-7.1254,0-1.0742,14.644-24.222,20.071-31.726,2.8405-3.9276,5.516-3.4781,13.972,2.3474,13.312,9.1702,34.678,28.494,46.236,41.816,16.113,18.572,28.72,36,28.72,39.703,0,1.4292-31.502,21.563-34.696,22.175-1.7145,0.3286-2.92-0.6291-5.5-4.3694zm21.369-7.5015c8.7048-5.5436,15.827-10.634,15.827-11.312,0-2.9667-13.887-21.684-27.532-37.108-17.267-19.519-51.132-48.062-54.53-45.962-1.3624,0.842-20.938,30.156-20.938,31.354,0,0.5174,3.4875,3.398,7.75,6.4013,19.612,13.818,44.287,39.463,58.651,60.956,2.1135,3.1625,4.0908,5.75,4.3939,5.75,0.3032,0,7.6734-4.5357,16.378-10.079zm-1452.9-5.583c-2.2761-0.9184-1.1853-102.76,1.2969-121.09,0.54323-4.0109,0.75502-4.246,3.7643-4.1792,1.7538,0.039,10.614,2.6264,19.689,5.75l16.5,5.6792-0.32824,55.5c-0.18054,30.525-0.54836,56.288-0.81739,57.25-0.44511,1.5924-2.2162,1.7429-19.672,1.671-10.55-0.043-19.745-0.3059-20.433-0.5833zm38.072-2.0877c0.24212-0.4125,0.76726-25.339,1.167-55.391l0.72674-54.642-17.561-5.8217c-9.6588-3.202-17.912-5.4711-18.341-5.0424-0.42865,0.4286-1.0823,3.7871-1.4526,7.4632-1.0124,10.051-3.305,110.58-2.5657,112.51,0.56797,1.4801,2.7691,1.6727,19.114,1.6727,10.16,0,18.67-0.3375,18.913-0.75zm555.25-20.139c-0.30213-0.4889-2.0851-4.8764-3.9622-9.75-4.0113-10.415-6.6365-15.24-24.988-45.923-9.2344-15.44-15.945-25.444-20.306-30.269-3.8361-4.245-6.2906-7.7856-5.9722-8.615,0.93457-2.4355,28.596-25.554,30.576-25.554,1.0567,0,4.9443,3.2747,8.8404,7.4467,5.2479,5.6194,10.754,13.778,22.437,33.25,19.868,33.112,23.964,40.738,28.274,52.646,3.8008,10.5,4.2348,13.155,2.2816,13.955-34.693,14.21-36.033,14.671-37.181,12.813zm19.263-7.7913c9.0033-3.6741,16.577-7.2201,16.83-7.88,0.65388-1.704-5.9705-18.423-10.848-27.379-12.655-23.237-35.546-59.822-42.017-67.154-3.8386-4.349-7.2757-7.9045-7.638-7.9011-0.99496,0.01-27.603,22.933-28.026,24.145-0.20209,0.5794,2.1255,3.5949,5.1724,6.7011,3.8548,3.9298,9.9742,13.044,20.119,29.964,16.055,26.779,22.038,38.008,26.074,48.933,1.4728,3.9875,2.9673,7.25,3.3212,7.25,0.35386,0,8.0097-3.0061,17.013-6.6801zm-851.83-68.843,0-53.523,17.75,0.2731,17.75,0.2731,0.25876,53.25,0.25876,53.25-18.009,0-18.009,0,0-53.523zm33.992,50.538c0.71993-1.3452,0.97306-17.96,0.78518-51.537-0.23921-42.752-0.48308-49.682-1.7773-50.5-0.825-0.5213-7.9236-0.9547-15.775-0.9631l-14.275-0.015-0.97525,2.5651c-1.0569,2.7798-1.379,96.326-0.34496,100.18,0.5921,2.2094,0.87985,2.25,15.951,2.25,14.287,0,15.422-0.1373,16.411-1.9852zm1926.2-50.265,0.2588-53.25,17.75-0.2731,17.75-0.273,0,53.523,0,53.523-18.009,0-18.009,0,0.2587-53.25zm34.152,50.668c0.9392-2.4476,0.6861-100.75-0.2632-102.24-0.6516-1.0277-4.2134-1.2517-15.904-1-8.2855,0.1784-15.438,0.6988-15.895,1.1566-1.0058,1.008-1.747,88.589-0.8244,97.418l0.6531,6.25h15.813c13.497,0,15.902-0.2317,16.42-1.5818zm-667.68-20.668c-15.571-24.236-16.88-27.308-12.961-30.419,3.1765-2.5227,33.108-17.29,43.021-21.226,16.861-6.6939,34.166-11.804,51.459-15.197,9.2013-1.8051,17.027-2.9845,17.391-2.6207,0.8539,0.8539,6.6574,41.768,6.0156,42.41-0.2669,0.267-7.6068,1.9924-16.311,3.8343-23.911,5.0598-42.53,11.819-66.225,24.041-7.9196,4.0851-15.004,7.4274-15.744,7.4274-0.7396,0-3.7299-3.7125-6.6451-8.25zm25.289-2.9697c22.109-10.983,39.07-17.067,60-21.522,9.075-1.9317,16.839-3.8166,17.254-4.1885,0.9182-0.8241-4.0284-37.22-5.2228-38.429-0.4725-0.478-8.5731,0.7467-18.257,2.7602-16.282,3.3854-31.378,8.0655-50.213,15.567-10.943,4.3582-38.826,18.563-40.869,20.82-1.5869,1.7536-1.1457,2.6924,8.4873,18.058,5.5887,8.9143,10.422,16.078,10.741,15.918,0.3188-0.1593,8.4547-4.2017,18.08-8.9831zm205.59-7.4689c-24.992-10.194-45.136-14.664-81.586-18.104l-7.5-0.7077-0.2711-20.372c-0.1966-14.774,0.06-20.771,0.9342-21.824,0.9598-1.1565,2.95-1.3281,9.7711-0.8422,35.227,2.5094,58.86,7.3677,90.33,18.569,12.221,4.3502,18.038,7.4988,18.482,10.005,0.4019,2.2669-16.323,37.448-17.873,37.596-0.7549,0.072-6.2841-1.8717-12.287-4.3203zm19.713-14.561c4.154-8.9375,7.6986-16.925,7.8769-17.75,0.4448-2.058-7.6199-5.8522-24.176-11.374-31.581-10.533-56.098-15.378-80.5-15.909l-10-0.2173-0.8801,18.19c-0.4841,10.004-0.6245,18.856-0.312,19.67,0.5885,1.5335,0.7565,1.5601,23.192,3.6664,20.482,1.9228,46.262,8.1943,65.458,15.924,5.2484,2.1134,10.048,3.8891,10.666,3.9461,0.6177,0.057,4.5218-7.2089,8.6759-16.146zm-831.82-54.679c-1.6394-1.6107-16.258-10.276-32.485-19.256l-29.504-16.327-16.246-3.8992c-15.839-3.8016-16.245-3.964-16.221-6.4945,0.0285-2.9745,8.4614-36.915,9.4069-37.86,0.71741-0.7174,16.64,2.7134,30.568,6.5864,9.8427,2.737,24.968,10.392,61,30.875,16.464,9.3588,24,15.448,24,19.391,0,1.0066-2.7629,5.1112-6.1398,9.1214-3.3769,4.0101-8.6644,10.318-11.75,14.017-6.3551,7.6191-8.2128,8.1847-12.629,3.8454zm15.108-10.78c15.577-18.402,14.318-15.776,9.7919-20.426-4.8007-4.9325-52.207-32.407-69.813-40.46-5.7572-2.6336-36.459-10.66-38.208-9.989-1.2381,0.475-10.057,35.22-9.1659,36.112,0.29563,0.2956,7.7208,2.3154,16.5,4.4885l15.963,3.9509,28.922,16.061c15.907,8.8334,30.263,17.391,31.902,19.017,1.6394,1.6257,3.2544,2.9559,3.5888,2.9559,0.33445,0,5.0681-5.2689,10.519-11.709zm-496.59-3.8754c-8.525-5.2519-16.141-10.176-16.923-10.942-1.2306-1.2039-1.1299-3.5316,0.74295-17.184,1.1915-8.685,2.6483-18.494,3.2373-21.797l1.071-6.0065,13.186-5.2478c22.864-9.0994,52.091-15.041,77.686-15.794,7.975-0.2345,37.765-0.6248,66.199-0.8675l51.699-0.4411,0.51292,4.1815c0.2821,2.2998,0.69516,11.469,0.9179,20.376,0.35556,14.218,0.20766,16.275-1.2119,16.857-0.8893,0.3646-30.417,1.0206-65.617,1.4577-68.48,0.8504-82.252,1.7854-103.63,7.0349l-8.6256,2.1185-0.7247,17.919c-0.50278,12.432-1.0768,17.914-1.8744,17.901-0.63234-0.01-8.1247-4.3145-16.65-9.5665zm16.916-11.916c0.0632-7.7,0.4456-14.488,0.84968-15.085,1.3608-2.0096,17.606-5.2829,36.735-7.402,10.45-1.1576,21.925-2.4313,25.5-2.8303,3.575-0.3991,16.85-0.3865,29.5,0.028,25.063,0.8211,85.322-0.6328,86.783-2.0939,0.5309-0.5309,0.60376-8.25,0.17551-18.595-0.64932-15.686-0.93477-17.763-2.5221-18.354-0.98444-0.367-10.26-0.3836-20.613-0.037s-33.111,0.6841-50.573,0.75c-20.42,0.077-31.75,0.4767-31.75,1.1198,0,0.55-0.675,1-1.5,1s-1.5-0.5184-1.5-1.152c0-0.8408-3.3092-0.9823-12.25-0.524-24.803,1.2715-53.423,7.4428-73.52,15.853-9.2916,3.8884-12.391,5.6432-12.767,7.2288-1.0159,4.2803-5.4577,34.191-5.4602,36.768-0.002,2.3807,1.7282,3.7296,15.747,12.275,18.553,11.309,16.993,12.122,17.166-8.9497zm-280.67-67.227,0.2587-53.773,16.608-0.2735c13.194-0.2173,16.845,0.012,17.759,1.1133,0.84308,1.0158,1.0817,15.401,0.89198,53.774l-0.25899,52.387-17.759,0.2731-17.759,0.2731,0.2587-53.773zm34.128,49.477c0.7872-2.9374,0.7872-96.563,0-99.5-0.59298-2.2127-0.86435-2.25-16.37-2.25-15.505,0-15.777,0.037-16.37,2.25-0.79061,2.9502-0.81275,98.111-0.0233,100.17,0.518,1.3499,2.9199,1.5818,16.383,1.5818,15.515,0,15.786-0.037,16.379-2.25zm1926.3,3.5833c-0.3667-0.3666-0.6667-24.201-0.6667-52.965,0-51.115,0.045-52.322,1.9819-53.359,1.2245-0.6553,8.0075-0.9554,17.75-0.7852l15.768,0.2755,0.2587,53.75,0.2587,53.75h-17.342c-9.5382,0-17.642-0.3-18.009-0.6667zm33.833-53.333,0-51.5-15.983,0-15.983,0-0.7093,4c-0.878,4.9512-1.0379,90.576-0.1788,95.774l0.6237,3.7741,16.115-0.2741,16.115-0.2741v-51.5zm-1424,40.908c-8.25-0.4153-27.443-0.4974-42.652-0.1826l-27.652,0.5725-0.37718-18.899c-0.20745-10.394-0.20291-19.671,0.0101-20.616,0.213-0.9443,1.3512-2.0318,2.5293-2.4167,3.1403-1.026,77.422-0.7551,96.425,0.3517,9.7827,0.5697,16.746,1.4115,17.444,2.1087,0.88047,0.8804,0.7304,5.3227-0.62217,18.417-0.98039,9.491-2.0163,18.269-2.302,19.506-0.50987,2.2085-0.77106,2.2469-14.161,2.0812-7.5029-0.093-20.392-0.5085-28.642-0.9237zm40.763-1.1575c0.26244-0.6875,1.3006-9.0428,2.307-18.567,1.466-13.874,1.5778-17.473,0.56248-18.101-3.0542-1.8876-72.298-3.7665-96.456-2.6173-12.492,0.5943-15.942,1.0618-16.387,2.2211-0.3099,0.8076-0.16451,9.3954,0.3231,19.084l0.88657,17.616,35-0.1482c19.25-0.082,41.975,0.2082,50.5,0.6438s17.139,0.8656,19.143,0.9555c2.1272,0.095,3.8416-0.3566,4.1202-1.0865zm-545.51-100.47-2.75-0.4165,0-18.434,0-18.434,53.5,0,53.5,0,0,18.369,0,18.369-3.75,0.6199c-4.0786,0.6741-96.008,0.606-100.5-0.074zm102.05-2.4837c0.83131-0.8313,1.2-6.0185,1.2-16.883,0-15.419-0.0379-15.694-2.25-16.286-4.0707-1.0909-98.731-0.7107-100.82,0.4049-1.7793,0.9523-1.9343,2.2272-1.9343,15.918,0,8.1857,0.27314,15.595,0.60699,16.465,0.54245,1.4136,5.9971,1.5818,51.3,1.5818,38.095,0,50.991-0.2982,51.893-1.2zm41.452,2.4945c-3.0941-0.5961-3.3652-2.4524-3.0375-20.794l0.28587-16h53.5,53.5v17.99,17.99l-3,0.6415c-3.3043,0.7065-97.642,0.8674-101.25,0.1726zm102.52-18.22c0.20926-12.471-0.0315-16.62-1-17.235-1.4642-0.9293-98.795-1.1535-101.19-0.2332-1.3525,0.519-1.5818,2.9595-1.5818,16.833,0,8.9245,0.30404,16.53,0.67565,16.902,0.37161,0.3716,23.659,0.5591,51.75,0.4167l51.074-0.259,0.27561-16.425zm40.974,18.209-2.75-0.4165,0-18.434,0-18.434,53.5,0,53.5,0,0,18.369,0,18.369-3.75,0.6199c-4.0786,0.6741-96.008,0.606-100.5-0.074zm102.05-2.4837c0.83131-0.8313,1.2-6.0185,1.2-16.883,0-15.419-0.0379-15.694-2.25-16.286-4.0707-1.0909-98.731-0.7107-100.82,0.4049-1.7793,0.9523-1.9343,2.2272-1.9343,15.918,0,8.1857,0.27314,15.595,0.60699,16.465,0.54245,1.4136,5.9971,1.5818,51.3,1.5818,38.095,0,50.991-0.2982,51.893-1.2zm41.452,2.4945c-3.0941-0.5961-3.3652-2.4524-3.0375-20.794l0.28587-16h53.5,53.5v17.99,17.99l-3,0.6415c-3.3043,0.7065-97.642,0.8674-101.25,0.1726zm102.52-18.22c0.20926-12.471-0.0315-16.62-1-17.235-1.4642-0.9293-98.795-1.1535-101.19-0.2332-1.3525,0.519-1.5818,2.9595-1.5818,16.833,0,8.9245,0.30404,16.53,0.67565,16.902,0.37161,0.3716,23.659,0.5591,51.75,0.4167l51.074-0.259,0.27561-16.425zm40.974,18.209-2.75-0.4165,0-18.434,0-18.434,53.5,0,53.5,0,0,18.369,0,18.369-3.75,0.6199c-4.0786,0.6741-96.008,0.606-100.5-0.074zm102.05-2.4837c0.83131-0.8313,1.2-6.0185,1.2-16.883,0-15.419-0.0379-15.694-2.25-16.286-4.0707-1.0909-98.731-0.7107-100.82,0.4049-1.7793,0.9523-1.9343,2.2272-1.9343,15.918,0,8.1857,0.27314,15.595,0.60699,16.465,0.54245,1.4136,5.9971,1.5818,51.3,1.5818,38.095,0,50.991-0.2982,51.893-1.2zm41.2,2.3052-2.5-0.6954,0-17.955,0-17.955,53.5,0,53.5,0,0,17.99,0,17.99-3,0.6415c-4.0769,0.8718-98.362,0.8563-101.5-0.017zm102.78-18.03c0.20926-12.471-0.0315-16.62-1-17.235-1.4642-0.9293-98.795-1.1535-101.19-0.2332-1.3525,0.519-1.5818,2.9595-1.5818,16.833,0,8.9245,0.30404,16.53,0.67565,16.902,0.37161,0.3716,23.659,0.5591,51.75,0.4167l51.074-0.259,0.27561-16.425zm40.474,18.214c-2.2365-0.4256-2.25-0.5391-2.25-18.859v-18.43h74,74v18.375,18.375l-3.0695,0.6139c-3.3964,0.6793-139.09,0.6082-142.68-0.075zm144.14-2.8709c0.3339-0.87,0.607-8.4718,0.607-16.893,0-12.888-0.2446-15.405-1.5456-15.904-2.0205-0.7754-139-0.7734-142.09,0-2.3596,0.5922-2.3664,0.6378-2.3664,15.904,0,8.4204,0.27314,16.022,0.60699,16.892,0.54569,1.4221,7.856,1.5818,72.393,1.5818s71.847-0.1597,72.393-1.5818zm41.107,2.7037-3-0.6415,0-17.99,0-17.99,53.5,0,53.5,0,0.272,18.116,0.2721,18.116-3.7721,0.6234c-4.9298,0.8147-96.866,0.6024-100.77-0.2327zm102.28-18.047c0.2093-12.471-0.032-16.62-1-17.235-1.4606-0.927-97.105-1.1267-100.53-0.2099-2.216,0.5939-2.25,0.8477-2.25,16.82,0,8.9192,0.304,16.521,0.6757,16.892,0.3716,0.3716,23.659,0.5591,51.75,0.4167l51.074-0.259,0.2756-16.425zm41.474,18.202-3.25-0.4033,0-18.437,0-18.437,53.5,0,53.5,0,0,18.375,0,18.375-3.125,0.625c-3.3409,0.6682-95.172,0.5784-100.62-0.098zm102.14-2.8584c0.3339-0.87,0.607-8.4718,0.607-16.893,0-13.039-0.2347-15.401-1.5818-15.918-2.7065-1.0386-98.069-0.6904-100.85,0.3682l-2.5651,0.9753v14.943c0,8.2186,0.2731,15.655,0.607,16.525,0.5426,1.4139,6.0493,1.5818,51.893,1.5818s51.35-0.1679,51.893-1.5818zm41.107,2.7037-3-0.6415,0-17.99,0-17.99,53.5,0,53.5,0,0,17.955,0,17.955-2.5,0.6954c-3.1384,0.873-97.423,0.8885-101.5,0.017zm102.28-18.047c0.2093-12.471-0.032-16.62-1-17.235-1.4606-0.927-97.105-1.1267-100.53-0.2099-2.216,0.5939-2.25,0.8477-2.25,16.82,0,8.9192,0.304,16.521,0.6757,16.892,0.3716,0.3716,23.659,0.5591,51.75,0.4167l51.074-0.259,0.2756-16.425zm41.474,18.202-3.25-0.4033,0-18.437,0-18.437,53.5,0,53.5,0,0,18.375,0,18.375-3.125,0.625c-3.3409,0.6682-95.172,0.5784-100.62-0.098zm102.14-2.8584c0.3339-0.87,0.607-8.4718,0.607-16.893,0-13.039-0.2347-15.401-1.5818-15.918-2.0941-0.8036-96.27-0.7867-100.29,0.018l-3.125,0.625v15.293c0,8.4113,0.2731,16.005,0.607,16.875,0.5426,1.4139,6.0493,1.5818,51.893,1.5818s51.35-0.1679,51.893-1.5818zm41.107,2.7037-3-0.6415,0-17.99,0-17.99,53.5,0,53.5,0,0,17.955,0,17.955-2.5,0.6954c-3.1384,0.873-97.423,0.8885-101.5,0.017zm102.28-18.047c0.2093-12.471-0.032-16.62-1-17.235-1.4606-0.927-97.105-1.1267-100.53-0.2099-2.216,0.5939-2.25,0.8477-2.25,16.82,0,8.9192,0.304,16.521,0.6757,16.892,0.3716,0.3716,23.659,0.5591,51.75,0.4167l51.074-0.259,0.2756-16.425zm40.974,18.209-2.75-0.4165,0-18.434,0-18.434,53.5,0,53.5,0,0,18.369,0,18.369-3.75,0.6199c-4.0786,0.6741-96.008,0.606-100.5-0.074zm102.64-2.8655c0.3339-0.87,0.607-8.4718,0.607-16.893,0-13.039-0.2347-15.401-1.5818-15.918-2.0573-0.7895-98.218-0.7673-101.17,0.023-2.209,0.592-2.25,0.8816-2.25,15.904,0,8.4159,0.2731,16.013,0.607,16.883,0.5426,1.4139,6.0493,1.5818,51.893,1.5818s51.35-0.1679,51.893-1.5818z"/>
  </g>
 </g>
</svg>
