<?xml version="1.0" encoding="utf-8"?>
<!DOCTYPE svg PUBLIC "-//W3C//DTD SVG 1.1//EN" "http://www.w3.org/Graphics/SVG/1.1/DTD/svg11.dtd">
<svg version="1.1" xmlns="http://www.w3.org/2000/svg" xmlns:xlink="http://www.w3.org/1999/xlink" x="0px" y="0px"
   viewBox="0 0 200 50" enable-background="new 0 0 200 50" xml:space="preserve">
<g id="Background">
  <rect x="-0.5" y="-0.5" fill="#FFFFFF" stroke="#FFFFFF" stroke-miterlimit="10" width="200" height="50"/>
</g>
<g id="Text">
  <g>
    <path fill="#0F0D0E" d="M83.4,22.9H71.5c-0.3,0-0.6,0.2-0.6,0.6v5.8c0,0.3,0.2,0.6,0.6,0.6h4.6V37c0,0-1,0.4-3.9,0.4
      c-3.4,0-8.1-1.2-8.1-11.7C64.1,15.3,69,14,73.6,14c4,0,5.7,0.7,6.8,1c0.3,0.1,0.7-0.2,0.7-0.5l1.3-5.6c0-0.1,0-0.3-0.2-0.4
      c-0.4-0.3-3.2-1.8-10-1.8c-7.9,0-16.1,3.4-16.1,19.6c0,16.2,9.3,18.6,17.2,18.6c6.5,0,10.4-2.8,10.4-2.8c0.2-0.1,0.2-0.3,0.2-0.4
      V23.5C83.9,23.2,83.7,22.9,83.4,22.9z"/>
    <path fill="#0F0D0E" d="M144.6,8.5c0-0.3-0.2-0.6-0.6-0.6h-6.7c-0.3,0-0.6,0.2-0.6,0.6c0,0,0,12.9,0,12.9h-10.4V8.5
      c0-0.3-0.2-0.6-0.6-0.6h-6.7c-0.3,0-0.6,0.2-0.6,0.6v35c0,0.3,0.2,0.6,0.6,0.6h6.7c0.3,0,0.6-0.3,0.6-0.6v-15h10.4c0,0,0,15,0,15
      c0,0.3,0.2,0.6,0.6,0.6h6.7c0.3,0,0.6-0.3,0.6-0.6V8.5z"/>
    <g>
      <g>
        <path fill="#0F0D0E" d="M96,13.1c0-2.4-1.9-4.4-4.3-4.4c-2.4,0-4.3,1.9-4.3,4.4c0,2.4,1.9,4.4,4.3,4.4
          C94.1,17.5,96,15.5,96,13.1z"/>
        <path fill="#0F0D0E" d="M95.5,36.1c0-0.9,0-16.1,0-16.1c0-0.3-0.2-0.6-0.6-0.6h-6.7c-0.3,0-0.6,0.3-0.6,0.6c0,0,0,19.4,0,23.1
          c0,0.7,0.4,0.9,1,0.9c0,0,2.8,0,6,0c0.7,0,0.8-0.3,0.8-0.9C95.5,41.9,95.5,37.1,95.5,36.1z"/>
      </g>
    </g>
    <path fill="#0F0D0E" d="M170,19.5h-6.6c-0.3,0-0.6,0.3-0.6,0.6v17.2c0,0-1.7,1.2-4.1,1.2c-2.4,0-3-1.1-3-3.4c0-2.3,0-15,0-15
      c0-0.3-0.2-0.6-0.6-0.6h-6.7c-0.3,0-0.6,0.3-0.6,0.6c0,0,0,9.1,0,16.1c0,7,3.9,8.7,9.2,8.7c4.4,0,7.9-2.4,7.9-2.4s0.2,1.3,0.2,1.4
      c0.1,0.2,0.3,0.3,0.5,0.3l4.3,0c0.3,0,0.6-0.3,0.6-0.6l0-23.5C170.5,19.7,170.3,19.5,170,19.5z"/>
    <path fill="#0F0D0E" d="M188.1,18.7c-3.8,0-6.3,1.7-6.3,1.7V8.5c0-0.3-0.2-0.6-0.6-0.6h-6.7c-0.3,0-0.6,0.2-0.6,0.6v35
      c0,0.3,0.2,0.6,0.6,0.6c0,0,4.6,0,4.7,0c0.2,0,0.4-0.1,0.5-0.3c0.1-0.2,0.3-1.6,0.3-1.6s2.7,2.6,7.9,2.6c6.1,0,9.6-3.1,9.6-13.9
      C197.4,20.1,191.9,18.7,188.1,18.7z M185.5,38.4c-2.3-0.1-3.9-1.1-3.9-1.1V26.2c0,0,1.5-0.9,3.4-1.1c2.4-0.2,4.7,0.5,4.7,6.2
      C189.7,37.3,188.7,38.5,185.5,38.4z"/>
    <path fill="#0F0D0E" d="M114.7,19.4h-5c0,0,0-6.6,0-6.6c0-0.3-0.1-0.4-0.4-0.4h-6.8c-0.3,0-0.4,0.1-0.4,0.4v6.8
      c0,0-3.4,0.8-3.7,0.9C98.1,20.6,98,20.8,98,21v4.3c0,0.3,0.2,0.6,0.6,0.6h3.5c0,0,0,4.5,0,10.3c0,7.7,5.4,8.4,9,8.4
      c1.7,0,3.7-0.5,4-0.7c0.2-0.1,0.3-0.3,0.3-0.5l0-4.7c0-0.3-0.3-0.6-0.6-0.6c-0.3,0-1,0.1-1.8,0.1c-2.5,0-3.3-1.1-3.3-2.6
      c0-1.5,0-9.8,0-9.8h5c0.3,0,0.6-0.2,0.6-0.6V20C115.3,19.7,115,19.4,114.7,19.4z"/>
  </g>
  <path fill-rule="evenodd" clip-rule="evenodd" fill="#181616" d="M27.6,3.6c-11.6,0-21,9.4-21,21c0,9.3,6,17.1,14.3,19.9
    c1,0.2,1.4-0.5,1.4-1c0-0.5,0-1.8,0-3.6c-5.8,1.3-7.1-2.8-7.1-2.8C14.4,34.6,13,34,13,34c-1.9-1.3,0.1-1.3,0.1-1.3
    c2.1,0.1,3.2,2.2,3.2,2.2c1.9,3.2,4.9,2.3,6.1,1.7c0.2-1.4,0.7-2.3,1.3-2.8c-4.7-0.5-9.5-2.3-9.5-10.4c0-2.3,0.8-4.2,2.2-5.6
    c-0.2-0.5-0.9-2.7,0.2-5.5c0,0,1.8-0.6,5.8,2.1c1.7-0.5,3.5-0.7,5.2-0.7c1.8,0,3.6,0.2,5.2,0.7c4-2.7,5.8-2.1,5.8-2.1
    c1.1,2.9,0.4,5,0.2,5.5c1.3,1.5,2.2,3.3,2.2,5.6c0,8-4.9,9.8-9.6,10.3c0.8,0.6,1.4,1.9,1.4,3.9c0,2.8,0,5.1,0,5.7
    c0,0.6,0.4,1.2,1.4,1c8.3-2.8,14.3-10.6,14.3-19.9C48.6,12.9,39.2,3.6,27.6,3.6z"/>
</g>
</svg>
